<?xml version="1.0" encoding="UTF-8" standalone="no"?>
<!DOCTYPE svg PUBLIC "-//W3C//DTD SVG 1.1//EN"
 "http://www.w3.org/Graphics/SVG/1.1/DTD/svg11.dtd">
<!-- Generated by graphviz version 2.40.1 (20161225.0304)
 -->
<!-- Title: public.user_articles Pages: 1 -->
<svg width="1012pt" height="652pt"
 viewBox="0.00 0.00 1012.00 652.00" xmlns="http://www.w3.org/2000/svg" xmlns:xlink="http://www.w3.org/1999/xlink">
<g id="graph0" class="graph" transform="scale(1 1) rotate(0) translate(4 648)">
<title>public.user_articles</title>
<polygon fill="#ffffff" stroke="transparent" points="-4,4 -4,-648 1008,-648 1008,4 -4,4"/>
<!-- public.user_articles -->
<g id="node1" class="node">
<title>public.user_articles</title>
<polygon fill="#efefef" stroke="transparent" points="362,-562.5 362,-597.5 657,-597.5 657,-562.5 362,-562.5"/>
<polygon fill="none" stroke="#000000" points="362,-562.5 362,-597.5 657,-597.5 657,-562.5 362,-562.5"/>
<text text-anchor="start" x="368.7084" y="-575.3" font-family="Arial Bold" font-size="18.00" fill="#000000">public.user_articles</text>
<text text-anchor="start" x="522.7236" y="-575.3" font-family="Arial" font-size="14.00" fill="#000000">    </text>
<text text-anchor="start" x="556.9284" y="-575.3" font-family="Arial" font-size="14.00" fill="#666666">[BASE TABLE]</text>
<polygon fill="none" stroke="#000000" points="362,-532.5 362,-562.5 657,-562.5 657,-532.5 362,-532.5"/>
<text text-anchor="start" x="369" y="-543.9" font-family="Arial" font-size="14.00" fill="#000000">id </text>
<text text-anchor="start" x="383.7798" y="-543.9" font-family="Arial" font-size="14.00" fill="#666666">[uuid]</text>
<polygon fill="none" stroke="#000000" points="362,-502.5 362,-532.5 657,-532.5 657,-502.5 362,-502.5"/>
<text text-anchor="start" x="369" y="-513.9" font-family="Arial" font-size="14.00" fill="#000000">created_at </text>
<text text-anchor="start" x="439.028" y="-513.9" font-family="Arial" font-size="14.00" fill="#666666">[timestamp with time zone]</text>
<polygon fill="none" stroke="#000000" points="362,-472.5 362,-502.5 657,-502.5 657,-472.5 362,-472.5"/>
<text text-anchor="start" x="369" y="-483.9" font-family="Arial" font-size="14.00" fill="#000000">updated_at </text>
<text text-anchor="start" x="442.9326" y="-483.9" font-family="Arial" font-size="14.00" fill="#666666">[timestamp with time zone]</text>
<polygon fill="none" stroke="#000000" points="362,-442.5 362,-472.5 657,-472.5 657,-442.5 362,-442.5"/>
<text text-anchor="start" x="369" y="-453.9" font-family="Arial" font-size="14.00" fill="#000000">article_id </text>
<text text-anchor="start" x="428.892" y="-453.9" font-family="Arial" font-size="14.00" fill="#666666">[uuid]</text>
<polygon fill="none" stroke="#000000" points="362,-412.5 362,-442.5 657,-442.5 657,-412.5 362,-412.5"/>
<text text-anchor="start" x="369" y="-423.9" font-family="Arial" font-size="14.00" fill="#000000">user_id </text>
<text text-anchor="start" x="418.7882" y="-423.9" font-family="Arial" font-size="14.00" fill="#666666">[uuid]</text>
<polygon fill="none" stroke="#000000" stroke-width="3" points="360,-411.5 360,-599.5 658,-599.5 658,-411.5 360,-411.5"/>
</g>
<!-- public.articles -->
<g id="node2" class="node">
<title>public.articles</title>
<polygon fill="#efefef" stroke="transparent" points="175,-252.5 175,-287.5 458,-287.5 458,-252.5 175,-252.5"/>
<polygon fill="none" stroke="#000000" points="175,-252.5 175,-287.5 458,-287.5 458,-252.5 175,-252.5"/>
<text text-anchor="start" x="198.2138" y="-265.3" font-family="Arial Bold" font-size="18.00" fill="#000000">public.articles</text>
<text text-anchor="start" x="307.2182" y="-265.3" font-family="Arial" font-size="14.00" fill="#000000">    </text>
<text text-anchor="start" x="341.423" y="-265.3" font-family="Arial" font-size="14.00" fill="#666666">[BASE TABLE]</text>
<polygon fill="none" stroke="#000000" points="175,-222.5 175,-252.5 458,-252.5 458,-222.5 175,-222.5"/>
<text text-anchor="start" x="182" y="-233.9" font-family="Arial" font-size="14.00" fill="#000000">id    </text>
<text text-anchor="start" x="227.094" y="-233.9" font-family="Arial" font-size="14.00" fill="#666666">[uuid]</text>
<polygon fill="none" stroke="#000000" points="175,-192.5 175,-222.5 458,-222.5 458,-192.5 175,-192.5"/>
<text text-anchor="start" x="182" y="-203.9" font-family="Arial" font-size="14.00" fill="#000000">title    </text>
<text text-anchor="start" x="237.9818" y="-203.9" font-family="Arial" font-size="14.00" fill="#666666">[varchar]</text>
<polygon fill="none" stroke="#000000" points="175,-162.5 175,-192.5 458,-192.5 458,-162.5 175,-162.5"/>
<text text-anchor="start" x="182" y="-173.9" font-family="Arial" font-size="14.00" fill="#000000">url    </text>
<text text-anchor="start" x="231.7546" y="-173.9" font-family="Arial" font-size="14.00" fill="#666666">[varchar]</text>
<polygon fill="none" stroke="#000000" points="175,-132.5 175,-162.5 458,-162.5 458,-132.5 175,-132.5"/>
<text text-anchor="start" x="182" y="-143.9" font-family="Arial" font-size="14.00" fill="#000000">description    </text>
<text text-anchor="start" x="283.8822" y="-143.9" font-family="Arial" font-size="14.00" fill="#666666">[varchar]</text>
<polygon fill="none" stroke="#000000" points="175,-102.5 175,-132.5 458,-132.5 458,-102.5 175,-102.5"/>
<text text-anchor="start" x="182" y="-113.9" font-family="Arial" font-size="14.00" fill="#000000">thumbnail    </text>
<text text-anchor="start" x="276.8822" y="-113.9" font-family="Arial" font-size="14.00" fill="#666666">[varchar]</text>
<polygon fill="none" stroke="#000000" points="175,-72.5 175,-102.5 458,-102.5 458,-72.5 175,-72.5"/>
<text text-anchor="start" x="182" y="-83.9" font-family="Arial" font-size="14.00" fill="#000000">created_at    </text>
<text text-anchor="start" x="282.3422" y="-83.9" font-family="Arial" font-size="14.00" fill="#666666">[timestamp with time zone]</text>
<polygon fill="none" stroke="#000000" points="175,-42.5 175,-72.5 458,-72.5 458,-42.5 175,-42.5"/>
<text text-anchor="start" x="181.5344" y="-53.9" font-family="Arial" font-size="14.00" fill="#000000">updated_at    </text>
<text text-anchor="start" x="285.7812" y="-53.9" font-family="Arial" font-size="14.00" fill="#666666">[timestamp with time zone]</text>
</g>
<!-- public.user_articles&#45;&gt;public.articles -->
<g id="edge1" class="edge">
<title>public.user_articles:article_id&#45;&gt;public.articles:id</title>
<path fill="none" stroke="#000000" d="M351.8138,-455.9328C325.2124,-446.5137 341.327,-396.8312 362,-367 387.9553,-329.5465 432.0447,-368.4535 458,-331 481.6698,-296.8444 499.5556,-237.5 458,-237.5"/>
<polygon fill="#000000" stroke="#000000" points="352.1163,-455.9793 361.3157,-461.9477 357.0581,-456.7396 362,-457.5 362,-457.5 362,-457.5 357.0581,-456.7396 362.6843,-453.0523 352.1163,-455.9793 352.1163,-455.9793"/>
<text text-anchor="start" x="6.8365" y="-467.5" font-family="Arial" font-size="10.00" fill="#000000">FOREIGN KEY (article_id) REFERENCES articles(id) ON DELETE CASCADE</text>
</g>
<!-- public.users -->
<g id="node3" class="node">
<title>public.users</title>
<polygon fill="#efefef" stroke="transparent" points="562,-192.5 562,-227.5 845,-227.5 845,-192.5 562,-192.5"/>
<polygon fill="none" stroke="#000000" points="562,-192.5 562,-227.5 845,-227.5 845,-192.5 562,-192.5"/>
<text text-anchor="start" x="591.7091" y="-205.3" font-family="Arial Bold" font-size="18.00" fill="#000000">public.users</text>
<text text-anchor="start" x="687.7229" y="-205.3" font-family="Arial" font-size="14.00" fill="#000000">    </text>
<text text-anchor="start" x="721.9277" y="-205.3" font-family="Arial" font-size="14.00" fill="#666666">[BASE TABLE]</text>
<polygon fill="none" stroke="#000000" points="562,-162.5 562,-192.5 845,-192.5 845,-162.5 562,-162.5"/>
<text text-anchor="start" x="569" y="-173.9" font-family="Arial" font-size="14.00" fill="#000000">id    </text>
<text text-anchor="start" x="614.094" y="-173.9" font-family="Arial" font-size="14.00" fill="#666666">[uuid]</text>
<polygon fill="none" stroke="#000000" points="562,-132.5 562,-162.5 845,-162.5 845,-132.5 562,-132.5"/>
<text text-anchor="start" x="569" y="-143.9" font-family="Arial" font-size="14.00" fill="#000000">created_at    </text>
<text text-anchor="start" x="669.3422" y="-143.9" font-family="Arial" font-size="14.00" fill="#666666">[timestamp with time zone]</text>
<polygon fill="none" stroke="#000000" points="562,-102.5 562,-132.5 845,-132.5 845,-102.5 562,-102.5"/>
<text text-anchor="start" x="568.5344" y="-113.9" font-family="Arial" font-size="14.00" fill="#000000">updated_at    </text>
<text text-anchor="start" x="672.7812" y="-113.9" font-family="Arial" font-size="14.00" fill="#666666">[timestamp with time zone]</text>
</g>
<!-- public.user_articles&#45;&gt;public.users -->
<g id="edge2" class="edge">
<title>public.user_articles:user_id&#45;&gt;public.users:id</title>
<path fill="none" stroke="#000000" d="M666.9383,-424.8277C678.5943,-416.0982 665.5473,-387.7889 657,-367 634.1742,-311.483 584.8258,-326.517 562,-271 546.1979,-232.5662 520.4444,-177.5 562,-177.5"/>
<polygon fill="#000000" stroke="#000000" points="666.657,-424.9032 655.8315,-423.1544 661.8285,-426.2016 657,-427.5 657,-427.5 657,-427.5 661.8285,-426.2016 658.1685,-431.8456 666.657,-424.9032 666.657,-424.9032"/>
<text text-anchor="start" x="664.0535" y="-437.5" font-family="Arial" font-size="10.00" fill="#000000">FOREIGN KEY (user_id) REFERENCES users(id) ON DELETE CASCADE</text>
</g>
</g>
</svg>
