<?xml version="1.0" encoding="UTF-8" standalone="no"?>
<!DOCTYPE svg PUBLIC "-//W3C//DTD SVG 1.1//EN"
 "http://www.w3.org/Graphics/SVG/1.1/DTD/svg11.dtd">
<!-- Generated by graphviz version 2.40.1 (20161225.0304)
 -->
<!-- Title: public.users Pages: 1 -->
<svg width="547pt" height="532pt"
 viewBox="0.00 0.00 546.50 532.00" xmlns="http://www.w3.org/2000/svg" xmlns:xlink="http://www.w3.org/1999/xlink">
<g id="graph0" class="graph" transform="scale(1 1) rotate(0) translate(4 528)">
<title>public.users</title>
<polygon fill="#ffffff" stroke="transparent" points="-4,4 -4,-528 542.5,-528 542.5,4 -4,4"/>
<!-- public.users -->
<g id="node1" class="node">
<title>public.users</title>
<polygon fill="#efefef" stroke="transparent" points="64.5,-135.5 64.5,-170.5 317.5,-170.5 317.5,-135.5 64.5,-135.5"/>
<polygon fill="none" stroke="#000000" points="64.5,-135.5 64.5,-170.5 317.5,-170.5 317.5,-135.5 64.5,-135.5"/>
<text text-anchor="start" x="79.2091" y="-148.3" font-family="Arial Bold" font-size="18.00" fill="#000000">public.users</text>
<text text-anchor="start" x="175.2229" y="-148.3" font-family="Arial" font-size="14.00" fill="#000000">    </text>
<text text-anchor="start" x="209.4277" y="-148.3" font-family="Arial" font-size="14.00" fill="#666666">[BASE TABLE]</text>
<polygon fill="none" stroke="#000000" points="64.5,-105.5 64.5,-135.5 317.5,-135.5 317.5,-105.5 64.5,-105.5"/>
<text text-anchor="start" x="71.5" y="-116.9" font-family="Arial" font-size="14.00" fill="#000000">id </text>
<text text-anchor="start" x="86.2798" y="-116.9" font-family="Arial" font-size="14.00" fill="#666666">[uuid]</text>
<polygon fill="none" stroke="#000000" points="64.5,-75.5 64.5,-105.5 317.5,-105.5 317.5,-75.5 64.5,-75.5"/>
<text text-anchor="start" x="71.5" y="-86.9" font-family="Arial" font-size="14.00" fill="#000000">created_at </text>
<text text-anchor="start" x="141.528" y="-86.9" font-family="Arial" font-size="14.00" fill="#666666">[timestamp with time zone]</text>
<polygon fill="none" stroke="#000000" points="64.5,-45.5 64.5,-75.5 317.5,-75.5 317.5,-45.5 64.5,-45.5"/>
<text text-anchor="start" x="71.1915" y="-56.9" font-family="Arial" font-size="14.00" fill="#000000">updated_at </text>
<text text-anchor="start" x="145.1241" y="-56.9" font-family="Arial" font-size="14.00" fill="#666666">[timestamp with time zone]</text>
<polygon fill="none" stroke="#000000" stroke-width="3" points="62.5,-44.5 62.5,-172.5 318.5,-172.5 318.5,-44.5 62.5,-44.5"/>
</g>
<!-- public.user_articles -->
<g id="node2" class="node">
<title>public.user_articles</title>
<polygon fill="#efefef" stroke="transparent" points="43.5,-445.5 43.5,-480.5 338.5,-480.5 338.5,-445.5 43.5,-445.5"/>
<polygon fill="none" stroke="#000000" points="43.5,-445.5 43.5,-480.5 338.5,-480.5 338.5,-445.5 43.5,-445.5"/>
<text text-anchor="start" x="50.2084" y="-458.3" font-family="Arial Bold" font-size="18.00" fill="#000000">public.user_articles</text>
<text text-anchor="start" x="204.2236" y="-458.3" font-family="Arial" font-size="14.00" fill="#000000">    </text>
<text text-anchor="start" x="238.4284" y="-458.3" font-family="Arial" font-size="14.00" fill="#666666">[BASE TABLE]</text>
<polygon fill="none" stroke="#000000" points="43.5,-415.5 43.5,-445.5 338.5,-445.5 338.5,-415.5 43.5,-415.5"/>
<text text-anchor="start" x="50.5" y="-426.9" font-family="Arial" font-size="14.00" fill="#000000">id    </text>
<text text-anchor="start" x="95.594" y="-426.9" font-family="Arial" font-size="14.00" fill="#666666">[uuid]</text>
<polygon fill="none" stroke="#000000" points="43.5,-385.5 43.5,-415.5 338.5,-415.5 338.5,-385.5 43.5,-385.5"/>
<text text-anchor="start" x="50.5" y="-396.9" font-family="Arial" font-size="14.00" fill="#000000">created_at    </text>
<text text-anchor="start" x="150.8422" y="-396.9" font-family="Arial" font-size="14.00" fill="#666666">[timestamp with time zone]</text>
<polygon fill="none" stroke="#000000" points="43.5,-355.5 43.5,-385.5 338.5,-385.5 338.5,-355.5 43.5,-355.5"/>
<text text-anchor="start" x="50.5" y="-366.9" font-family="Arial" font-size="14.00" fill="#000000">updated_at    </text>
<text text-anchor="start" x="154.7468" y="-366.9" font-family="Arial" font-size="14.00" fill="#666666">[timestamp with time zone]</text>
<polygon fill="none" stroke="#000000" points="43.5,-325.5 43.5,-355.5 338.5,-355.5 338.5,-325.5 43.5,-325.5"/>
<text text-anchor="start" x="50.5" y="-336.9" font-family="Arial" font-size="14.00" fill="#000000">article_id    </text>
<text text-anchor="start" x="140.7062" y="-336.9" font-family="Arial" font-size="14.00" fill="#666666">[uuid]</text>
<polygon fill="none" stroke="#000000" points="43.5,-295.5 43.5,-325.5 338.5,-325.5 338.5,-295.5 43.5,-295.5"/>
<text text-anchor="start" x="50.5" y="-306.9" font-family="Arial" font-size="14.00" fill="#000000">user_id    </text>
<text text-anchor="start" x="130.6024" y="-306.9" font-family="Arial" font-size="14.00" fill="#666666">[uuid]</text>
</g>
<!-- public.user_articles&#45;&gt;public.users -->
<g id="edge1" class="edge">
<title>public.user_articles:user_id&#45;&gt;public.users:id</title>
<path fill="none" stroke="#000000" d="M190.6172,-285.2649C180.9737,-234.0004 94.9816,-271.6755 64.5,-217 43.6157,-179.5393 21.6111,-120.5 64.5,-120.5"/>
<polygon fill="#000000" stroke="#000000" points="190.6406,-285.537 187.0166,-295.8867 191.0703,-290.5185 191.5,-295.5 191.5,-295.5 191.5,-295.5 191.0703,-290.5185 195.9834,-295.1133 190.6406,-285.537 190.6406,-285.537"/>
<text text-anchor="start" x="198.5535" y="-305.5" font-family="Arial" font-size="10.00" fill="#000000">FOREIGN KEY (user_id) REFERENCES users(id) ON DELETE CASCADE</text>
</g>
</g>
</svg>
