<?xml version="1.0" encoding="UTF-8" standalone="no"?>
<!DOCTYPE svg PUBLIC "-//W3C//DTD SVG 1.1//EN"
 "http://www.w3.org/Graphics/SVG/1.1/DTD/svg11.dtd">
<!-- Generated by graphviz version 2.40.1 (20161225.0304)
 -->
<!-- Title: public.articles Pages: 1 -->
<svg width="446pt" height="592pt"
 viewBox="0.00 0.00 445.50 592.00" xmlns="http://www.w3.org/2000/svg" xmlns:xlink="http://www.w3.org/1999/xlink">
<g id="graph0" class="graph" transform="scale(1 1) rotate(0) translate(4 588)">
<title>public.articles</title>
<polygon fill="#ffffff" stroke="transparent" points="-4,4 -4,-588 441.5,-588 441.5,4 -4,4"/>
<!-- public.articles -->
<g id="node1" class="node">
<title>public.articles</title>
<polygon fill="#efefef" stroke="transparent" points="59.5,-255.5 59.5,-290.5 312.5,-290.5 312.5,-255.5 59.5,-255.5"/>
<polygon fill="none" stroke="#000000" points="59.5,-255.5 59.5,-290.5 312.5,-290.5 312.5,-255.5 59.5,-255.5"/>
<text text-anchor="start" x="67.7138" y="-268.3" font-family="Arial Bold" font-size="18.00" fill="#000000">public.articles</text>
<text text-anchor="start" x="176.7182" y="-268.3" font-family="Arial" font-size="14.00" fill="#000000">    </text>
<text text-anchor="start" x="210.923" y="-268.3" font-family="Arial" font-size="14.00" fill="#666666">[BASE TABLE]</text>
<polygon fill="none" stroke="#000000" points="59.5,-225.5 59.5,-255.5 312.5,-255.5 312.5,-225.5 59.5,-225.5"/>
<text text-anchor="start" x="66.5" y="-236.9" font-family="Arial" font-size="14.00" fill="#000000">id </text>
<text text-anchor="start" x="81.2798" y="-236.9" font-family="Arial" font-size="14.00" fill="#666666">[uuid]</text>
<polygon fill="none" stroke="#000000" points="59.5,-195.5 59.5,-225.5 312.5,-225.5 312.5,-195.5 59.5,-195.5"/>
<text text-anchor="start" x="66.5" y="-206.9" font-family="Arial" font-size="14.00" fill="#000000">title </text>
<text text-anchor="start" x="92.1676" y="-206.9" font-family="Arial" font-size="14.00" fill="#666666">[varchar]</text>
<polygon fill="none" stroke="#000000" points="59.5,-165.5 59.5,-195.5 312.5,-195.5 312.5,-165.5 59.5,-165.5"/>
<text text-anchor="start" x="66.5" y="-176.9" font-family="Arial" font-size="14.00" fill="#000000">url </text>
<text text-anchor="start" x="85.9404" y="-176.9" font-family="Arial" font-size="14.00" fill="#666666">[varchar]</text>
<polygon fill="none" stroke="#000000" points="59.5,-135.5 59.5,-165.5 312.5,-165.5 312.5,-135.5 59.5,-135.5"/>
<text text-anchor="start" x="66.5" y="-146.9" font-family="Arial" font-size="14.00" fill="#000000">description </text>
<text text-anchor="start" x="138.068" y="-146.9" font-family="Arial" font-size="14.00" fill="#666666">[varchar]</text>
<polygon fill="none" stroke="#000000" points="59.5,-105.5 59.5,-135.5 312.5,-135.5 312.5,-105.5 59.5,-105.5"/>
<text text-anchor="start" x="66.5" y="-116.9" font-family="Arial" font-size="14.00" fill="#000000">thumbnail </text>
<text text-anchor="start" x="131.068" y="-116.9" font-family="Arial" font-size="14.00" fill="#666666">[varchar]</text>
<polygon fill="none" stroke="#000000" points="59.5,-75.5 59.5,-105.5 312.5,-105.5 312.5,-75.5 59.5,-75.5"/>
<text text-anchor="start" x="66.5" y="-86.9" font-family="Arial" font-size="14.00" fill="#000000">created_at </text>
<text text-anchor="start" x="136.528" y="-86.9" font-family="Arial" font-size="14.00" fill="#666666">[timestamp with time zone]</text>
<polygon fill="none" stroke="#000000" points="59.5,-45.5 59.5,-75.5 312.5,-75.5 312.5,-45.5 59.5,-45.5"/>
<text text-anchor="start" x="66.1915" y="-56.9" font-family="Arial" font-size="14.00" fill="#000000">updated_at </text>
<text text-anchor="start" x="140.1241" y="-56.9" font-family="Arial" font-size="14.00" fill="#666666">[timestamp with time zone]</text>
<polygon fill="none" stroke="#000000" stroke-width="3" points="57.5,-44.5 57.5,-292.5 313.5,-292.5 313.5,-44.5 57.5,-44.5"/>
</g>
<!-- public.article_tags -->
<g id="node2" class="node">
<title>public.article_tags</title>
<polygon fill="#efefef" stroke="transparent" points="43.5,-505.5 43.5,-540.5 328.5,-540.5 328.5,-505.5 43.5,-505.5"/>
<polygon fill="none" stroke="#000000" points="43.5,-505.5 43.5,-540.5 328.5,-540.5 328.5,-505.5 43.5,-505.5"/>
<text text-anchor="start" x="50.2034" y="-518.3" font-family="Arial Bold" font-size="18.00" fill="#000000">public.article_tags</text>
<text text-anchor="start" x="194.2286" y="-518.3" font-family="Arial" font-size="14.00" fill="#000000">    </text>
<text text-anchor="start" x="228.4334" y="-518.3" font-family="Arial" font-size="14.00" fill="#666666">[BASE TABLE]</text>
<polygon fill="none" stroke="#000000" points="43.5,-475.5 43.5,-505.5 328.5,-505.5 328.5,-475.5 43.5,-475.5"/>
<text text-anchor="start" x="50.5" y="-486.9" font-family="Arial" font-size="14.00" fill="#000000">id    </text>
<text text-anchor="start" x="95.594" y="-486.9" font-family="Arial" font-size="14.00" fill="#666666">[uuid]</text>
<polygon fill="none" stroke="#000000" points="43.5,-445.5 43.5,-475.5 328.5,-475.5 328.5,-445.5 43.5,-445.5"/>
<text text-anchor="start" x="50.5" y="-456.9" font-family="Arial" font-size="14.00" fill="#000000">tag    </text>
<text text-anchor="start" x="104.1606" y="-456.9" font-family="Arial" font-size="14.00" fill="#666666">[varchar]</text>
<polygon fill="none" stroke="#000000" points="43.5,-415.5 43.5,-445.5 328.5,-445.5 328.5,-415.5 43.5,-415.5"/>
<text text-anchor="start" x="50.5" y="-426.9" font-family="Arial" font-size="14.00" fill="#000000">article_id    </text>
<text text-anchor="start" x="140.7062" y="-426.9" font-family="Arial" font-size="14.00" fill="#666666">[uuid]</text>
</g>
<!-- public.article_tags&#45;&gt;public.articles -->
<g id="edge1" class="edge">
<title>public.article_tags:article_id&#45;&gt;public.articles:id</title>
<path fill="none" stroke="#000000" d="M185.6172,-405.2649C175.9737,-354.0004 89.9816,-391.6755 59.5,-337 38.6157,-299.5393 16.6111,-240.5 59.5,-240.5"/>
<polygon fill="#000000" stroke="#000000" points="185.6406,-405.537 182.0166,-415.8867 186.0703,-410.5185 186.5,-415.5 186.5,-415.5 186.5,-415.5 186.0703,-410.5185 190.9834,-415.1133 185.6406,-405.537 185.6406,-405.537"/>
<text text-anchor="start" x="193.6175" y="-425.5" font-family="Arial" font-size="10.00" fill="#000000">FOREIGN KEY (article_id) REFERENCES articles(id)</text>
</g>
</g>
</svg>
