<?xml version="1.0" encoding="UTF-8" standalone="no"?>
<!DOCTYPE svg PUBLIC "-//W3C//DTD SVG 1.1//EN"
 "http://www.w3.org/Graphics/SVG/1.1/DTD/svg11.dtd">
<!-- Generated by graphviz version 2.40.1 (20161225.0304)
 -->
<!-- Title: public.articles Pages: 1 -->
<svg width="836pt" height="652pt"
 viewBox="0.00 0.00 836.00 652.00" xmlns="http://www.w3.org/2000/svg" xmlns:xlink="http://www.w3.org/1999/xlink">
<g id="graph0" class="graph" transform="scale(1 1) rotate(0) translate(4 648)">
<title>public.articles</title>
<polygon fill="#ffffff" stroke="transparent" points="-4,4 -4,-648 832,-648 832,4 -4,4"/>
<!-- public.articles -->
<g id="node1" class="node">
<title>public.articles</title>
<polygon fill="#efefef" stroke="transparent" points="285,-255.5 285,-290.5 538,-290.5 538,-255.5 285,-255.5"/>
<polygon fill="none" stroke="#000000" points="285,-255.5 285,-290.5 538,-290.5 538,-255.5 285,-255.5"/>
<text text-anchor="start" x="293.2138" y="-268.3" font-family="Arial Bold" font-size="18.00" fill="#000000">public.articles</text>
<text text-anchor="start" x="402.2182" y="-268.3" font-family="Arial" font-size="14.00" fill="#000000">    </text>
<text text-anchor="start" x="436.423" y="-268.3" font-family="Arial" font-size="14.00" fill="#666666">[BASE TABLE]</text>
<polygon fill="none" stroke="#000000" points="285,-225.5 285,-255.5 538,-255.5 538,-225.5 285,-225.5"/>
<text text-anchor="start" x="292" y="-236.9" font-family="Arial" font-size="14.00" fill="#000000">id </text>
<text text-anchor="start" x="306.7798" y="-236.9" font-family="Arial" font-size="14.00" fill="#666666">[uuid]</text>
<polygon fill="none" stroke="#000000" points="285,-195.5 285,-225.5 538,-225.5 538,-195.5 285,-195.5"/>
<text text-anchor="start" x="292" y="-206.9" font-family="Arial" font-size="14.00" fill="#000000">title </text>
<text text-anchor="start" x="317.6676" y="-206.9" font-family="Arial" font-size="14.00" fill="#666666">[varchar]</text>
<polygon fill="none" stroke="#000000" points="285,-165.5 285,-195.5 538,-195.5 538,-165.5 285,-165.5"/>
<text text-anchor="start" x="292" y="-176.9" font-family="Arial" font-size="14.00" fill="#000000">url </text>
<text text-anchor="start" x="311.4404" y="-176.9" font-family="Arial" font-size="14.00" fill="#666666">[varchar]</text>
<polygon fill="none" stroke="#000000" points="285,-135.5 285,-165.5 538,-165.5 538,-135.5 285,-135.5"/>
<text text-anchor="start" x="292" y="-146.9" font-family="Arial" font-size="14.00" fill="#000000">description </text>
<text text-anchor="start" x="363.568" y="-146.9" font-family="Arial" font-size="14.00" fill="#666666">[varchar]</text>
<polygon fill="none" stroke="#000000" points="285,-105.5 285,-135.5 538,-135.5 538,-105.5 285,-105.5"/>
<text text-anchor="start" x="292" y="-116.9" font-family="Arial" font-size="14.00" fill="#000000">thumbnail </text>
<text text-anchor="start" x="356.568" y="-116.9" font-family="Arial" font-size="14.00" fill="#666666">[varchar]</text>
<polygon fill="none" stroke="#000000" points="285,-75.5 285,-105.5 538,-105.5 538,-75.5 285,-75.5"/>
<text text-anchor="start" x="292" y="-86.9" font-family="Arial" font-size="14.00" fill="#000000">created_at </text>
<text text-anchor="start" x="362.028" y="-86.9" font-family="Arial" font-size="14.00" fill="#666666">[timestamp with time zone]</text>
<polygon fill="none" stroke="#000000" points="285,-45.5 285,-75.5 538,-75.5 538,-45.5 285,-45.5"/>
<text text-anchor="start" x="291.6915" y="-56.9" font-family="Arial" font-size="14.00" fill="#000000">updated_at </text>
<text text-anchor="start" x="365.6241" y="-56.9" font-family="Arial" font-size="14.00" fill="#666666">[timestamp with time zone]</text>
<polygon fill="none" stroke="#000000" stroke-width="3" points="283,-44.5 283,-292.5 539,-292.5 539,-44.5 283,-44.5"/>
</g>
<!-- public.user_articles -->
<g id="node2" class="node">
<title>public.user_articles</title>
<polygon fill="#efefef" stroke="transparent" points="67,-565.5 67,-600.5 362,-600.5 362,-565.5 67,-565.5"/>
<polygon fill="none" stroke="#000000" points="67,-565.5 67,-600.5 362,-600.5 362,-565.5 67,-565.5"/>
<text text-anchor="start" x="73.7084" y="-578.3" font-family="Arial Bold" font-size="18.00" fill="#000000">public.user_articles</text>
<text text-anchor="start" x="227.7236" y="-578.3" font-family="Arial" font-size="14.00" fill="#000000">    </text>
<text text-anchor="start" x="261.9284" y="-578.3" font-family="Arial" font-size="14.00" fill="#666666">[BASE TABLE]</text>
<polygon fill="none" stroke="#000000" points="67,-535.5 67,-565.5 362,-565.5 362,-535.5 67,-535.5"/>
<text text-anchor="start" x="74" y="-546.9" font-family="Arial" font-size="14.00" fill="#000000">id    </text>
<text text-anchor="start" x="119.094" y="-546.9" font-family="Arial" font-size="14.00" fill="#666666">[uuid]</text>
<polygon fill="none" stroke="#000000" points="67,-505.5 67,-535.5 362,-535.5 362,-505.5 67,-505.5"/>
<text text-anchor="start" x="74" y="-516.9" font-family="Arial" font-size="14.00" fill="#000000">created_at    </text>
<text text-anchor="start" x="174.3422" y="-516.9" font-family="Arial" font-size="14.00" fill="#666666">[timestamp with time zone]</text>
<polygon fill="none" stroke="#000000" points="67,-475.5 67,-505.5 362,-505.5 362,-475.5 67,-475.5"/>
<text text-anchor="start" x="74" y="-486.9" font-family="Arial" font-size="14.00" fill="#000000">updated_at    </text>
<text text-anchor="start" x="178.2468" y="-486.9" font-family="Arial" font-size="14.00" fill="#666666">[timestamp with time zone]</text>
<polygon fill="none" stroke="#000000" points="67,-445.5 67,-475.5 362,-475.5 362,-445.5 67,-445.5"/>
<text text-anchor="start" x="74" y="-456.9" font-family="Arial" font-size="14.00" fill="#000000">article_id    </text>
<text text-anchor="start" x="164.2062" y="-456.9" font-family="Arial" font-size="14.00" fill="#666666">[uuid]</text>
<polygon fill="none" stroke="#000000" points="67,-415.5 67,-445.5 362,-445.5 362,-415.5 67,-415.5"/>
<text text-anchor="start" x="74" y="-426.9" font-family="Arial" font-size="14.00" fill="#000000">user_id    </text>
<text text-anchor="start" x="154.1024" y="-426.9" font-family="Arial" font-size="14.00" fill="#666666">[uuid]</text>
</g>
<!-- public.user_articles&#45;&gt;public.articles -->
<g id="edge1" class="edge">
<title>public.user_articles:article_id&#45;&gt;public.articles:id</title>
<path fill="none" stroke="#000000" d="M372.1448,-458.8878C397.2009,-449.6166 380.758,-402.4769 362,-373 341.718,-341.1283 305.282,-368.8717 285,-337 261.974,-300.8163 242.1111,-240.5 285,-240.5"/>
<polygon fill="#000000" stroke="#000000" points="371.8761,-458.9304 361.2937,-456.0558 366.938,-459.7152 362,-460.5 362,-460.5 362,-460.5 366.938,-459.7152 362.7063,-464.9442 371.8761,-458.9304 371.8761,-458.9304"/>
<text text-anchor="start" x="6.8365" y="-470.5" font-family="Arial" font-size="10.00" fill="#000000">FOREIGN KEY (article_id) REFERENCES articles(id) ON DELETE CASCADE</text>
</g>
<!-- public.article_tags -->
<g id="node3" class="node">
<title>public.article_tags</title>
<polygon fill="#efefef" stroke="transparent" points="466,-535.5 466,-570.5 751,-570.5 751,-535.5 466,-535.5"/>
<polygon fill="none" stroke="#000000" points="466,-535.5 466,-570.5 751,-570.5 751,-535.5 466,-535.5"/>
<text text-anchor="start" x="472.7034" y="-548.3" font-family="Arial Bold" font-size="18.00" fill="#000000">public.article_tags</text>
<text text-anchor="start" x="616.7286" y="-548.3" font-family="Arial" font-size="14.00" fill="#000000">    </text>
<text text-anchor="start" x="650.9334" y="-548.3" font-family="Arial" font-size="14.00" fill="#666666">[BASE TABLE]</text>
<polygon fill="none" stroke="#000000" points="466,-505.5 466,-535.5 751,-535.5 751,-505.5 466,-505.5"/>
<text text-anchor="start" x="473" y="-516.9" font-family="Arial" font-size="14.00" fill="#000000">id    </text>
<text text-anchor="start" x="518.094" y="-516.9" font-family="Arial" font-size="14.00" fill="#666666">[uuid]</text>
<polygon fill="none" stroke="#000000" points="466,-475.5 466,-505.5 751,-505.5 751,-475.5 466,-475.5"/>
<text text-anchor="start" x="473" y="-486.9" font-family="Arial" font-size="14.00" fill="#000000">tag    </text>
<text text-anchor="start" x="526.6606" y="-486.9" font-family="Arial" font-size="14.00" fill="#666666">[varchar]</text>
<polygon fill="none" stroke="#000000" points="466,-445.5 466,-475.5 751,-475.5 751,-445.5 466,-445.5"/>
<text text-anchor="start" x="473" y="-456.9" font-family="Arial" font-size="14.00" fill="#000000">article_id    </text>
<text text-anchor="start" x="563.2062" y="-456.9" font-family="Arial" font-size="14.00" fill="#666666">[uuid]</text>
</g>
<!-- public.article_tags&#45;&gt;public.articles -->
<g id="edge2" class="edge">
<title>public.article_tags:article_id&#45;&gt;public.articles:id</title>
<path fill="none" stroke="#000000" d="M456.2081,-457.7048C445.5449,-449.092 457.4784,-422.3717 466,-403 483.4797,-363.2646 520.5203,-376.7354 538,-337 555.2698,-297.7417 580.8889,-240.5 538,-240.5"/>
<polygon fill="#000000" stroke="#000000" points="456.3841,-457.755 464.7648,-464.8272 461.192,-459.1275 466,-460.5 466,-460.5 466,-460.5 461.192,-459.1275 467.2352,-456.1728 456.3841,-457.755 456.3841,-457.755"/>
<text text-anchor="start" x="472.8365" y="-470.5" font-family="Arial" font-size="10.00" fill="#000000">FOREIGN KEY (article_id) REFERENCES articles(id) ON DELETE CASCADE</text>
</g>
</g>
</svg>
