<?xml version="1.0" encoding="UTF-8" standalone="no"?>
<!DOCTYPE svg PUBLIC "-//W3C//DTD SVG 1.1//EN"
 "http://www.w3.org/Graphics/SVG/1.1/DTD/svg11.dtd">
<!-- Generated by graphviz version 2.40.1 (20161225.0304)
 -->
<!-- Title: public.article_tags Pages: 1 -->
<svg width="434pt" height="592pt"
 viewBox="0.00 0.00 433.50 592.00" xmlns="http://www.w3.org/2000/svg" xmlns:xlink="http://www.w3.org/1999/xlink">
<g id="graph0" class="graph" transform="scale(1 1) rotate(0) translate(4 588)">
<title>public.article_tags</title>
<polygon fill="#ffffff" stroke="transparent" points="-4,4 -4,-588 429.5,-588 429.5,4 -4,4"/>
<!-- public.article_tags -->
<g id="node1" class="node">
<title>public.article_tags</title>
<polygon fill="#efefef" stroke="transparent" points="46.5,-502.5 46.5,-537.5 301.5,-537.5 301.5,-502.5 46.5,-502.5"/>
<polygon fill="none" stroke="#000000" points="46.5,-502.5 46.5,-537.5 301.5,-537.5 301.5,-502.5 46.5,-502.5"/>
<text text-anchor="start" x="53.3605" y="-515.3" font-family="Arial Bold" font-size="18.00" fill="#000000">public.article_tags</text>
<text text-anchor="start" x="197.3857" y="-515.3" font-family="Arial" font-size="14.00" fill="#000000"> </text>
<text text-anchor="start" x="201.2763" y="-515.3" font-family="Arial" font-size="14.00" fill="#666666">[BASE TABLE]</text>
<polygon fill="none" stroke="#000000" points="46.5,-472.5 46.5,-502.5 301.5,-502.5 301.5,-472.5 46.5,-472.5"/>
<text text-anchor="start" x="53.5" y="-483.9" font-family="Arial" font-size="14.00" fill="#000000">id </text>
<text text-anchor="start" x="68.2798" y="-483.9" font-family="Arial" font-size="14.00" fill="#666666">[uuid]</text>
<polygon fill="none" stroke="#000000" points="46.5,-442.5 46.5,-472.5 301.5,-472.5 301.5,-442.5 46.5,-442.5"/>
<text text-anchor="start" x="53.5" y="-453.9" font-family="Arial" font-size="14.00" fill="#000000">tag </text>
<text text-anchor="start" x="76.8464" y="-453.9" font-family="Arial" font-size="14.00" fill="#666666">[varchar]</text>
<polygon fill="none" stroke="#000000" points="46.5,-412.5 46.5,-442.5 301.5,-442.5 301.5,-412.5 46.5,-412.5"/>
<text text-anchor="start" x="53.5" y="-423.9" font-family="Arial" font-size="14.00" fill="#000000">article_id </text>
<text text-anchor="start" x="113.392" y="-423.9" font-family="Arial" font-size="14.00" fill="#666666">[uuid]</text>
<polygon fill="none" stroke="#000000" stroke-width="3" points="44.5,-411.5 44.5,-539.5 302.5,-539.5 302.5,-411.5 44.5,-411.5"/>
</g>
<!-- public.articles -->
<g id="node2" class="node">
<title>public.articles</title>
<polygon fill="#efefef" stroke="transparent" points="47.5,-252.5 47.5,-287.5 300.5,-287.5 300.5,-252.5 47.5,-252.5"/>
<polygon fill="none" stroke="#000000" points="47.5,-252.5 47.5,-287.5 300.5,-287.5 300.5,-252.5 47.5,-252.5"/>
<text text-anchor="start" x="70.8709" y="-265.3" font-family="Arial Bold" font-size="18.00" fill="#000000">public.articles</text>
<text text-anchor="start" x="179.8753" y="-265.3" font-family="Arial" font-size="14.00" fill="#000000"> </text>
<text text-anchor="start" x="183.7659" y="-265.3" font-family="Arial" font-size="14.00" fill="#666666">[BASE TABLE]</text>
<polygon fill="none" stroke="#000000" points="47.5,-222.5 47.5,-252.5 300.5,-252.5 300.5,-222.5 47.5,-222.5"/>
<text text-anchor="start" x="54.5" y="-233.9" font-family="Arial" font-size="14.00" fill="#000000">id </text>
<text text-anchor="start" x="69.2798" y="-233.9" font-family="Arial" font-size="14.00" fill="#666666">[uuid]</text>
<polygon fill="none" stroke="#000000" points="47.5,-192.5 47.5,-222.5 300.5,-222.5 300.5,-192.5 47.5,-192.5"/>
<text text-anchor="start" x="54.5" y="-203.9" font-family="Arial" font-size="14.00" fill="#000000">title </text>
<text text-anchor="start" x="80.1676" y="-203.9" font-family="Arial" font-size="14.00" fill="#666666">[varchar]</text>
<polygon fill="none" stroke="#000000" points="47.5,-162.5 47.5,-192.5 300.5,-192.5 300.5,-162.5 47.5,-162.5"/>
<text text-anchor="start" x="54.5" y="-173.9" font-family="Arial" font-size="14.00" fill="#000000">url </text>
<text text-anchor="start" x="73.9404" y="-173.9" font-family="Arial" font-size="14.00" fill="#666666">[varchar]</text>
<polygon fill="none" stroke="#000000" points="47.5,-132.5 47.5,-162.5 300.5,-162.5 300.5,-132.5 47.5,-132.5"/>
<text text-anchor="start" x="54.5" y="-143.9" font-family="Arial" font-size="14.00" fill="#000000">description </text>
<text text-anchor="start" x="126.068" y="-143.9" font-family="Arial" font-size="14.00" fill="#666666">[varchar]</text>
<polygon fill="none" stroke="#000000" points="47.5,-102.5 47.5,-132.5 300.5,-132.5 300.5,-102.5 47.5,-102.5"/>
<text text-anchor="start" x="54.5" y="-113.9" font-family="Arial" font-size="14.00" fill="#000000">thumbnail </text>
<text text-anchor="start" x="119.068" y="-113.9" font-family="Arial" font-size="14.00" fill="#666666">[varchar]</text>
<polygon fill="none" stroke="#000000" points="47.5,-72.5 47.5,-102.5 300.5,-102.5 300.5,-72.5 47.5,-72.5"/>
<text text-anchor="start" x="54.5" y="-83.9" font-family="Arial" font-size="14.00" fill="#000000">created_at </text>
<text text-anchor="start" x="124.528" y="-83.9" font-family="Arial" font-size="14.00" fill="#666666">[timestamp with time zone]</text>
<polygon fill="none" stroke="#000000" points="47.5,-42.5 47.5,-72.5 300.5,-72.5 300.5,-42.5 47.5,-42.5"/>
<text text-anchor="start" x="54.1915" y="-53.9" font-family="Arial" font-size="14.00" fill="#000000">updated_at </text>
<text text-anchor="start" x="128.1241" y="-53.9" font-family="Arial" font-size="14.00" fill="#666666">[timestamp with time zone]</text>
</g>
<!-- public.article_tags&#45;&gt;public.articles -->
<g id="edge1" class="edge">
<title>public.article_tags:article_id&#45;&gt;public.articles:id</title>
<path fill="none" stroke="#000000" d="M173.6749,-402.4619C164.3145,-349.9823 77.9025,-386.6345 47.5,-331 27.5726,-294.5341 5.9444,-237.5 47.5,-237.5"/>
<polygon fill="#000000" stroke="#000000" points="173.6807,-402.5336 170.0151,-412.8687 174.0903,-407.5168 174.5,-412.5 174.5,-412.5 174.5,-412.5 174.0903,-407.5168 178.9849,-412.1313 173.6807,-402.5336 173.6807,-402.5336"/>
<text text-anchor="start" x="181.6175" y="-422.5" font-family="Arial" font-size="10.00" fill="#000000">FOREIGN KEY (article_id) REFERENCES articles(id)</text>
</g>
</g>
</svg>
