<?xml version="1.0" encoding="UTF-8" standalone="no"?>
<!DOCTYPE svg PUBLIC "-//W3C//DTD SVG 1.1//EN"
 "http://www.w3.org/Graphics/SVG/1.1/DTD/svg11.dtd">
<!-- Generated by graphviz version 2.40.1 (20161225.0304)
 -->
<!-- Title: public.articles Pages: 1 -->
<svg width="433pt" height="592pt"
 viewBox="0.00 0.00 432.50 592.00" xmlns="http://www.w3.org/2000/svg" xmlns:xlink="http://www.w3.org/1999/xlink">
<g id="graph0" class="graph" transform="scale(1 1) rotate(0) translate(4 588)">
<title>public.articles</title>
<polygon fill="#ffffff" stroke="transparent" points="-4,4 -4,-588 428.5,-588 428.5,4 -4,4"/>
<!-- public.articles -->
<g id="node1" class="node">
<title>public.articles</title>
<polygon fill="#efefef" stroke="transparent" points="46.5,-255.5 46.5,-290.5 299.5,-290.5 299.5,-255.5 46.5,-255.5"/>
<polygon fill="none" stroke="#000000" points="46.5,-255.5 46.5,-290.5 299.5,-290.5 299.5,-255.5 46.5,-255.5"/>
<text text-anchor="start" x="69.8709" y="-268.3" font-family="Arial Bold" font-size="18.00" fill="#000000">public.articles</text>
<text text-anchor="start" x="178.8753" y="-268.3" font-family="Arial" font-size="14.00" fill="#000000"> </text>
<text text-anchor="start" x="182.7659" y="-268.3" font-family="Arial" font-size="14.00" fill="#666666">[BASE TABLE]</text>
<polygon fill="none" stroke="#000000" points="46.5,-225.5 46.5,-255.5 299.5,-255.5 299.5,-225.5 46.5,-225.5"/>
<text text-anchor="start" x="53.5" y="-236.9" font-family="Arial" font-size="14.00" fill="#000000">id </text>
<text text-anchor="start" x="68.2798" y="-236.9" font-family="Arial" font-size="14.00" fill="#666666">[uuid]</text>
<polygon fill="none" stroke="#000000" points="46.5,-195.5 46.5,-225.5 299.5,-225.5 299.5,-195.5 46.5,-195.5"/>
<text text-anchor="start" x="53.5" y="-206.9" font-family="Arial" font-size="14.00" fill="#000000">title </text>
<text text-anchor="start" x="79.1676" y="-206.9" font-family="Arial" font-size="14.00" fill="#666666">[varchar]</text>
<polygon fill="none" stroke="#000000" points="46.5,-165.5 46.5,-195.5 299.5,-195.5 299.5,-165.5 46.5,-165.5"/>
<text text-anchor="start" x="53.5" y="-176.9" font-family="Arial" font-size="14.00" fill="#000000">url </text>
<text text-anchor="start" x="72.9404" y="-176.9" font-family="Arial" font-size="14.00" fill="#666666">[varchar]</text>
<polygon fill="none" stroke="#000000" points="46.5,-135.5 46.5,-165.5 299.5,-165.5 299.5,-135.5 46.5,-135.5"/>
<text text-anchor="start" x="53.5" y="-146.9" font-family="Arial" font-size="14.00" fill="#000000">description </text>
<text text-anchor="start" x="125.068" y="-146.9" font-family="Arial" font-size="14.00" fill="#666666">[varchar]</text>
<polygon fill="none" stroke="#000000" points="46.5,-105.5 46.5,-135.5 299.5,-135.5 299.5,-105.5 46.5,-105.5"/>
<text text-anchor="start" x="53.5" y="-116.9" font-family="Arial" font-size="14.00" fill="#000000">thumbnail </text>
<text text-anchor="start" x="118.068" y="-116.9" font-family="Arial" font-size="14.00" fill="#666666">[varchar]</text>
<polygon fill="none" stroke="#000000" points="46.5,-75.5 46.5,-105.5 299.5,-105.5 299.5,-75.5 46.5,-75.5"/>
<text text-anchor="start" x="53.5" y="-86.9" font-family="Arial" font-size="14.00" fill="#000000">created_at </text>
<text text-anchor="start" x="123.528" y="-86.9" font-family="Arial" font-size="14.00" fill="#666666">[timestamp with time zone]</text>
<polygon fill="none" stroke="#000000" points="46.5,-45.5 46.5,-75.5 299.5,-75.5 299.5,-45.5 46.5,-45.5"/>
<text text-anchor="start" x="53.1915" y="-56.9" font-family="Arial" font-size="14.00" fill="#000000">updated_at </text>
<text text-anchor="start" x="127.1241" y="-56.9" font-family="Arial" font-size="14.00" fill="#666666">[timestamp with time zone]</text>
<polygon fill="none" stroke="#000000" stroke-width="3" points="44.5,-44.5 44.5,-292.5 300.5,-292.5 300.5,-44.5 44.5,-44.5"/>
</g>
<!-- public.article_tags -->
<g id="node2" class="node">
<title>public.article_tags</title>
<polygon fill="#efefef" stroke="transparent" points="45.5,-505.5 45.5,-540.5 300.5,-540.5 300.5,-505.5 45.5,-505.5"/>
<polygon fill="none" stroke="#000000" points="45.5,-505.5 45.5,-540.5 300.5,-540.5 300.5,-505.5 45.5,-505.5"/>
<text text-anchor="start" x="52.3605" y="-518.3" font-family="Arial Bold" font-size="18.00" fill="#000000">public.article_tags</text>
<text text-anchor="start" x="196.3857" y="-518.3" font-family="Arial" font-size="14.00" fill="#000000"> </text>
<text text-anchor="start" x="200.2763" y="-518.3" font-family="Arial" font-size="14.00" fill="#666666">[BASE TABLE]</text>
<polygon fill="none" stroke="#000000" points="45.5,-475.5 45.5,-505.5 300.5,-505.5 300.5,-475.5 45.5,-475.5"/>
<text text-anchor="start" x="52.5" y="-486.9" font-family="Arial" font-size="14.00" fill="#000000">id </text>
<text text-anchor="start" x="67.2798" y="-486.9" font-family="Arial" font-size="14.00" fill="#666666">[uuid]</text>
<polygon fill="none" stroke="#000000" points="45.5,-445.5 45.5,-475.5 300.5,-475.5 300.5,-445.5 45.5,-445.5"/>
<text text-anchor="start" x="52.5" y="-456.9" font-family="Arial" font-size="14.00" fill="#000000">tag </text>
<text text-anchor="start" x="75.8464" y="-456.9" font-family="Arial" font-size="14.00" fill="#666666">[varchar]</text>
<polygon fill="none" stroke="#000000" points="45.5,-415.5 45.5,-445.5 300.5,-445.5 300.5,-415.5 45.5,-415.5"/>
<text text-anchor="start" x="52.5" y="-426.9" font-family="Arial" font-size="14.00" fill="#000000">article_id </text>
<text text-anchor="start" x="112.392" y="-426.9" font-family="Arial" font-size="14.00" fill="#666666">[uuid]</text>
</g>
<!-- public.article_tags&#45;&gt;public.articles -->
<g id="edge1" class="edge">
<title>public.article_tags:article_id&#45;&gt;public.articles:id</title>
<path fill="none" stroke="#000000" d="M172.6172,-405.2649C162.9737,-354.0004 76.9816,-391.6755 46.5,-337 25.6157,-299.5393 3.6111,-240.5 46.5,-240.5"/>
<polygon fill="#000000" stroke="#000000" points="172.6406,-405.537 169.0166,-415.8867 173.0703,-410.5185 173.5,-415.5 173.5,-415.5 173.5,-415.5 173.0703,-410.5185 177.9834,-415.1133 172.6406,-405.537 172.6406,-405.537"/>
<text text-anchor="start" x="180.6175" y="-425.5" font-family="Arial" font-size="10.00" fill="#000000">FOREIGN KEY (article_id) REFERENCES articles(id)</text>
</g>
</g>
</svg>
