<?xml version="1.0" encoding="UTF-8" standalone="no"?>
<!DOCTYPE svg PUBLIC "-//W3C//DTD SVG 1.1//EN"
 "http://www.w3.org/Graphics/SVG/1.1/DTD/svg11.dtd">
<!-- Generated by graphviz version 2.40.1 (20161225.0304)
 -->
<!-- Title: postgres Pages: 1 -->
<svg width="801pt" height="586pt"
 viewBox="0.00 0.00 800.50 586.00" xmlns="http://www.w3.org/2000/svg" xmlns:xlink="http://www.w3.org/1999/xlink">
<g id="graph0" class="graph" transform="scale(1 1) rotate(0) translate(4 582)">
<title>postgres</title>
<polygon fill="#ffffff" stroke="transparent" points="-4,4 -4,-582 796.5,-582 796.5,4 -4,4"/>
<!-- public.articles -->
<g id="node1" class="node">
<title>public.articles</title>
<polygon fill="#efefef" stroke="transparent" points="124,-252.5 124,-287.5 377,-287.5 377,-252.5 124,-252.5"/>
<polygon fill="none" stroke="#000000" points="124,-252.5 124,-287.5 377,-287.5 377,-252.5 124,-252.5"/>
<text text-anchor="start" x="132.2138" y="-265.3" font-family="Arial Bold" font-size="18.00" fill="#000000">public.articles</text>
<text text-anchor="start" x="241.2182" y="-265.3" font-family="Arial" font-size="14.00" fill="#000000">    </text>
<text text-anchor="start" x="275.423" y="-265.3" font-family="Arial" font-size="14.00" fill="#666666">[BASE TABLE]</text>
<polygon fill="none" stroke="#000000" points="124,-222.5 124,-252.5 377,-252.5 377,-222.5 124,-222.5"/>
<text text-anchor="start" x="131" y="-233.9" font-family="Arial" font-size="14.00" fill="#000000">id </text>
<text text-anchor="start" x="145.7798" y="-233.9" font-family="Arial" font-size="14.00" fill="#666666">[uuid]</text>
<polygon fill="none" stroke="#000000" points="124,-192.5 124,-222.5 377,-222.5 377,-192.5 124,-192.5"/>
<text text-anchor="start" x="131" y="-203.9" font-family="Arial" font-size="14.00" fill="#000000">title </text>
<text text-anchor="start" x="156.6676" y="-203.9" font-family="Arial" font-size="14.00" fill="#666666">[varchar]</text>
<polygon fill="none" stroke="#000000" points="124,-162.5 124,-192.5 377,-192.5 377,-162.5 124,-162.5"/>
<text text-anchor="start" x="131" y="-173.9" font-family="Arial" font-size="14.00" fill="#000000">url </text>
<text text-anchor="start" x="150.4404" y="-173.9" font-family="Arial" font-size="14.00" fill="#666666">[varchar]</text>
<polygon fill="none" stroke="#000000" points="124,-132.5 124,-162.5 377,-162.5 377,-132.5 124,-132.5"/>
<text text-anchor="start" x="131" y="-143.9" font-family="Arial" font-size="14.00" fill="#000000">description </text>
<text text-anchor="start" x="202.568" y="-143.9" font-family="Arial" font-size="14.00" fill="#666666">[varchar]</text>
<polygon fill="none" stroke="#000000" points="124,-102.5 124,-132.5 377,-132.5 377,-102.5 124,-102.5"/>
<text text-anchor="start" x="131" y="-113.9" font-family="Arial" font-size="14.00" fill="#000000">thumbnail </text>
<text text-anchor="start" x="195.568" y="-113.9" font-family="Arial" font-size="14.00" fill="#666666">[varchar]</text>
<polygon fill="none" stroke="#000000" points="124,-72.5 124,-102.5 377,-102.5 377,-72.5 124,-72.5"/>
<text text-anchor="start" x="131" y="-83.9" font-family="Arial" font-size="14.00" fill="#000000">created_at </text>
<text text-anchor="start" x="201.028" y="-83.9" font-family="Arial" font-size="14.00" fill="#666666">[timestamp with time zone]</text>
<polygon fill="none" stroke="#000000" points="124,-42.5 124,-72.5 377,-72.5 377,-42.5 124,-42.5"/>
<text text-anchor="start" x="130.6915" y="-53.9" font-family="Arial" font-size="14.00" fill="#000000">updated_at </text>
<text text-anchor="start" x="204.6241" y="-53.9" font-family="Arial" font-size="14.00" fill="#666666">[timestamp with time zone]</text>
</g>
<!-- public.users -->
<g id="node2" class="node">
<title>public.users</title>
<polygon fill="#efefef" stroke="transparent" points="497,-499.5 497,-534.5 750,-534.5 750,-499.5 497,-499.5"/>
<polygon fill="none" stroke="#000000" points="497,-499.5 497,-534.5 750,-534.5 750,-499.5 497,-499.5"/>
<text text-anchor="start" x="511.7091" y="-512.3" font-family="Arial Bold" font-size="18.00" fill="#000000">public.users</text>
<text text-anchor="start" x="607.7229" y="-512.3" font-family="Arial" font-size="14.00" fill="#000000">    </text>
<text text-anchor="start" x="641.9277" y="-512.3" font-family="Arial" font-size="14.00" fill="#666666">[BASE TABLE]</text>
<polygon fill="none" stroke="#000000" points="497,-469.5 497,-499.5 750,-499.5 750,-469.5 497,-469.5"/>
<text text-anchor="start" x="504" y="-480.9" font-family="Arial" font-size="14.00" fill="#000000">id </text>
<text text-anchor="start" x="518.7798" y="-480.9" font-family="Arial" font-size="14.00" fill="#666666">[uuid]</text>
<polygon fill="none" stroke="#000000" points="497,-439.5 497,-469.5 750,-469.5 750,-439.5 497,-439.5"/>
<text text-anchor="start" x="504" y="-450.9" font-family="Arial" font-size="14.00" fill="#000000">created_at </text>
<text text-anchor="start" x="574.028" y="-450.9" font-family="Arial" font-size="14.00" fill="#666666">[timestamp with time zone]</text>
<polygon fill="none" stroke="#000000" points="497,-409.5 497,-439.5 750,-439.5 750,-409.5 497,-409.5"/>
<text text-anchor="start" x="503.6915" y="-420.9" font-family="Arial" font-size="14.00" fill="#000000">updated_at </text>
<text text-anchor="start" x="577.6241" y="-420.9" font-family="Arial" font-size="14.00" fill="#666666">[timestamp with time zone]</text>
</g>
<!-- public.article_tags -->
<g id="node3" class="node">
<title>public.article_tags</title>
<polygon fill="#efefef" stroke="transparent" points="108,-499.5 108,-534.5 393,-534.5 393,-499.5 108,-499.5"/>
<polygon fill="none" stroke="#000000" points="108,-499.5 108,-534.5 393,-534.5 393,-499.5 108,-499.5"/>
<text text-anchor="start" x="114.7034" y="-512.3" font-family="Arial Bold" font-size="18.00" fill="#000000">public.article_tags</text>
<text text-anchor="start" x="258.7286" y="-512.3" font-family="Arial" font-size="14.00" fill="#000000">    </text>
<text text-anchor="start" x="292.9334" y="-512.3" font-family="Arial" font-size="14.00" fill="#666666">[BASE TABLE]</text>
<polygon fill="none" stroke="#000000" points="108,-469.5 108,-499.5 393,-499.5 393,-469.5 108,-469.5"/>
<text text-anchor="start" x="115" y="-480.9" font-family="Arial" font-size="14.00" fill="#000000">id </text>
<text text-anchor="start" x="129.7798" y="-480.9" font-family="Arial" font-size="14.00" fill="#666666">[uuid]</text>
<polygon fill="none" stroke="#000000" points="108,-439.5 108,-469.5 393,-469.5 393,-439.5 108,-439.5"/>
<text text-anchor="start" x="115" y="-450.9" font-family="Arial" font-size="14.00" fill="#000000">tag </text>
<text text-anchor="start" x="138.3464" y="-450.9" font-family="Arial" font-size="14.00" fill="#666666">[varchar]</text>
<polygon fill="none" stroke="#000000" points="108,-409.5 108,-439.5 393,-439.5 393,-409.5 108,-409.5"/>
<text text-anchor="start" x="115" y="-420.9" font-family="Arial" font-size="14.00" fill="#000000">article_id </text>
<text text-anchor="start" x="174.892" y="-420.9" font-family="Arial" font-size="14.00" fill="#666666">[uuid]</text>
</g>
<!-- public.article_tags&#45;&gt;public.articles -->
<g id="edge1" class="edge">
<title>public.article_tags:article_id&#45;&gt;public.articles:id</title>
<path fill="none" stroke="#000000" d="M250.1172,-399.2649C240.4737,-348.0004 154.4816,-385.6755 124,-331 103.7649,-294.7039 82.4444,-237.5 124,-237.5"/>
<polygon fill="#000000" stroke="#000000" points="250.1406,-399.537 246.5166,-409.8867 250.5703,-404.5185 251,-409.5 251,-409.5 251,-409.5 250.5703,-404.5185 255.4834,-409.1133 250.1406,-399.537 250.1406,-399.537"/>
<text text-anchor="start" x="7.1175" y="-419.5" font-family="Arial" font-size="10.00" fill="#000000">FOREIGN KEY (article_id) REFERENCES articles(id)</text>
</g>
</g>
</svg>
