<?xml version="1.0" encoding="UTF-8" standalone="no"?>
<!DOCTYPE svg PUBLIC "-//W3C//DTD SVG 1.1//EN"
 "http://www.w3.org/Graphics/SVG/1.1/DTD/svg11.dtd">
<!-- Generated by graphviz version 2.40.1 (20161225.0304)
 -->
<!-- Title: postgres Pages: 1 -->
<svg width="431pt" height="586pt"
 viewBox="0.00 0.00 430.50 586.00" xmlns="http://www.w3.org/2000/svg" xmlns:xlink="http://www.w3.org/1999/xlink">
<g id="graph0" class="graph" transform="scale(1 1) rotate(0) translate(4 582)">
<title>postgres</title>
<polygon fill="#ffffff" stroke="transparent" points="-4,4 -4,-582 426.5,-582 426.5,4 -4,4"/>
<!-- public.articles -->
<g id="node1" class="node">
<title>public.articles</title>
<polygon fill="#efefef" stroke="transparent" points="44.5,-252.5 44.5,-287.5 297.5,-287.5 297.5,-252.5 44.5,-252.5"/>
<polygon fill="none" stroke="#000000" points="44.5,-252.5 44.5,-287.5 297.5,-287.5 297.5,-252.5 44.5,-252.5"/>
<text text-anchor="start" x="67.8709" y="-265.3" font-family="Arial Bold" font-size="18.00" fill="#000000">public.articles</text>
<text text-anchor="start" x="176.8753" y="-265.3" font-family="Arial" font-size="14.00" fill="#000000"> </text>
<text text-anchor="start" x="180.7659" y="-265.3" font-family="Arial" font-size="14.00" fill="#666666">[BASE TABLE]</text>
<polygon fill="none" stroke="#000000" points="44.5,-222.5 44.5,-252.5 297.5,-252.5 297.5,-222.5 44.5,-222.5"/>
<text text-anchor="start" x="51.5" y="-233.9" font-family="Arial" font-size="14.00" fill="#000000">id </text>
<text text-anchor="start" x="66.2798" y="-233.9" font-family="Arial" font-size="14.00" fill="#666666">[uuid]</text>
<polygon fill="none" stroke="#000000" points="44.5,-192.5 44.5,-222.5 297.5,-222.5 297.5,-192.5 44.5,-192.5"/>
<text text-anchor="start" x="51.5" y="-203.9" font-family="Arial" font-size="14.00" fill="#000000">title </text>
<text text-anchor="start" x="77.1676" y="-203.9" font-family="Arial" font-size="14.00" fill="#666666">[varchar]</text>
<polygon fill="none" stroke="#000000" points="44.5,-162.5 44.5,-192.5 297.5,-192.5 297.5,-162.5 44.5,-162.5"/>
<text text-anchor="start" x="51.5" y="-173.9" font-family="Arial" font-size="14.00" fill="#000000">url </text>
<text text-anchor="start" x="70.9404" y="-173.9" font-family="Arial" font-size="14.00" fill="#666666">[varchar]</text>
<polygon fill="none" stroke="#000000" points="44.5,-132.5 44.5,-162.5 297.5,-162.5 297.5,-132.5 44.5,-132.5"/>
<text text-anchor="start" x="51.5" y="-143.9" font-family="Arial" font-size="14.00" fill="#000000">description </text>
<text text-anchor="start" x="123.068" y="-143.9" font-family="Arial" font-size="14.00" fill="#666666">[varchar]</text>
<polygon fill="none" stroke="#000000" points="44.5,-102.5 44.5,-132.5 297.5,-132.5 297.5,-102.5 44.5,-102.5"/>
<text text-anchor="start" x="51.5" y="-113.9" font-family="Arial" font-size="14.00" fill="#000000">thumbnail </text>
<text text-anchor="start" x="116.068" y="-113.9" font-family="Arial" font-size="14.00" fill="#666666">[varchar]</text>
<polygon fill="none" stroke="#000000" points="44.5,-72.5 44.5,-102.5 297.5,-102.5 297.5,-72.5 44.5,-72.5"/>
<text text-anchor="start" x="51.5" y="-83.9" font-family="Arial" font-size="14.00" fill="#000000">created_at </text>
<text text-anchor="start" x="121.528" y="-83.9" font-family="Arial" font-size="14.00" fill="#666666">[timestamp with time zone]</text>
<polygon fill="none" stroke="#000000" points="44.5,-42.5 44.5,-72.5 297.5,-72.5 297.5,-42.5 44.5,-42.5"/>
<text text-anchor="start" x="51.1915" y="-53.9" font-family="Arial" font-size="14.00" fill="#000000">updated_at </text>
<text text-anchor="start" x="125.1241" y="-53.9" font-family="Arial" font-size="14.00" fill="#666666">[timestamp with time zone]</text>
</g>
<!-- public.article_tags -->
<g id="node2" class="node">
<title>public.article_tags</title>
<polygon fill="#efefef" stroke="transparent" points="43.5,-499.5 43.5,-534.5 298.5,-534.5 298.5,-499.5 43.5,-499.5"/>
<polygon fill="none" stroke="#000000" points="43.5,-499.5 43.5,-534.5 298.5,-534.5 298.5,-499.5 43.5,-499.5"/>
<text text-anchor="start" x="50.3605" y="-512.3" font-family="Arial Bold" font-size="18.00" fill="#000000">public.article_tags</text>
<text text-anchor="start" x="194.3857" y="-512.3" font-family="Arial" font-size="14.00" fill="#000000"> </text>
<text text-anchor="start" x="198.2763" y="-512.3" font-family="Arial" font-size="14.00" fill="#666666">[BASE TABLE]</text>
<polygon fill="none" stroke="#000000" points="43.5,-469.5 43.5,-499.5 298.5,-499.5 298.5,-469.5 43.5,-469.5"/>
<text text-anchor="start" x="50.5" y="-480.9" font-family="Arial" font-size="14.00" fill="#000000">id </text>
<text text-anchor="start" x="65.2798" y="-480.9" font-family="Arial" font-size="14.00" fill="#666666">[uuid]</text>
<polygon fill="none" stroke="#000000" points="43.5,-439.5 43.5,-469.5 298.5,-469.5 298.5,-439.5 43.5,-439.5"/>
<text text-anchor="start" x="50.5" y="-450.9" font-family="Arial" font-size="14.00" fill="#000000">tag </text>
<text text-anchor="start" x="73.8464" y="-450.9" font-family="Arial" font-size="14.00" fill="#666666">[varchar]</text>
<polygon fill="none" stroke="#000000" points="43.5,-409.5 43.5,-439.5 298.5,-439.5 298.5,-409.5 43.5,-409.5"/>
<text text-anchor="start" x="50.5" y="-420.9" font-family="Arial" font-size="14.00" fill="#000000">article_id </text>
<text text-anchor="start" x="110.392" y="-420.9" font-family="Arial" font-size="14.00" fill="#666666">[uuid]</text>
</g>
<!-- public.article_tags&#45;&gt;public.articles -->
<g id="edge1" class="edge">
<title>public.article_tags:article_id&#45;&gt;public.articles:id</title>
<path fill="none" stroke="#000000" d="M170.6172,-399.2649C160.9737,-348.0004 74.9816,-385.6755 44.5,-331 24.2649,-294.7039 2.9444,-237.5 44.5,-237.5"/>
<polygon fill="#000000" stroke="#000000" points="170.6406,-399.537 167.0166,-409.8867 171.0703,-404.5185 171.5,-409.5 171.5,-409.5 171.5,-409.5 171.0703,-404.5185 175.9834,-409.1133 170.6406,-399.537 170.6406,-399.537"/>
<text text-anchor="start" x="178.6175" y="-419.5" font-family="Arial" font-size="10.00" fill="#000000">FOREIGN KEY (article_id) REFERENCES articles(id)</text>
</g>
</g>
</svg>
