<?xml version="1.0" encoding="UTF-8" standalone="no"?>
<!DOCTYPE svg PUBLIC "-//W3C//DTD SVG 1.1//EN"
 "http://www.w3.org/Graphics/SVG/1.1/DTD/svg11.dtd">
<!-- Generated by graphviz version 2.40.1 (20161225.0304)
 -->
<!-- Title: postgres Pages: 1 -->
<svg width="942pt" height="586pt"
 viewBox="0.00 0.00 941.50 586.00" xmlns="http://www.w3.org/2000/svg" xmlns:xlink="http://www.w3.org/1999/xlink">
<g id="graph0" class="graph" transform="scale(1 1) rotate(0) translate(4 582)">
<title>postgres</title>
<polygon fill="#ffffff" stroke="transparent" points="-4,4 -4,-582 937.5,-582 937.5,4 -4,4"/>
<!-- public.articles -->
<g id="node1" class="node">
<title>public.articles</title>
<polygon fill="#efefef" stroke="transparent" points="220,-252.5 220,-287.5 503,-287.5 503,-252.5 220,-252.5"/>
<polygon fill="none" stroke="#000000" points="220,-252.5 220,-287.5 503,-287.5 503,-252.5 220,-252.5"/>
<text text-anchor="start" x="243.2138" y="-265.3" font-family="Arial Bold" font-size="18.00" fill="#000000">public.articles</text>
<text text-anchor="start" x="352.2182" y="-265.3" font-family="Arial" font-size="14.00" fill="#000000">    </text>
<text text-anchor="start" x="386.423" y="-265.3" font-family="Arial" font-size="14.00" fill="#666666">[BASE TABLE]</text>
<polygon fill="none" stroke="#000000" points="220,-222.5 220,-252.5 503,-252.5 503,-222.5 220,-222.5"/>
<text text-anchor="start" x="227" y="-233.9" font-family="Arial" font-size="14.00" fill="#000000">id    </text>
<text text-anchor="start" x="272.094" y="-233.9" font-family="Arial" font-size="14.00" fill="#666666">[uuid]</text>
<polygon fill="none" stroke="#000000" points="220,-192.5 220,-222.5 503,-222.5 503,-192.5 220,-192.5"/>
<text text-anchor="start" x="227" y="-203.9" font-family="Arial" font-size="14.00" fill="#000000">title    </text>
<text text-anchor="start" x="282.9818" y="-203.9" font-family="Arial" font-size="14.00" fill="#666666">[varchar]</text>
<polygon fill="none" stroke="#000000" points="220,-162.5 220,-192.5 503,-192.5 503,-162.5 220,-162.5"/>
<text text-anchor="start" x="227" y="-173.9" font-family="Arial" font-size="14.00" fill="#000000">url    </text>
<text text-anchor="start" x="276.7546" y="-173.9" font-family="Arial" font-size="14.00" fill="#666666">[varchar]</text>
<polygon fill="none" stroke="#000000" points="220,-132.5 220,-162.5 503,-162.5 503,-132.5 220,-132.5"/>
<text text-anchor="start" x="227" y="-143.9" font-family="Arial" font-size="14.00" fill="#000000">description    </text>
<text text-anchor="start" x="328.8822" y="-143.9" font-family="Arial" font-size="14.00" fill="#666666">[varchar]</text>
<polygon fill="none" stroke="#000000" points="220,-102.5 220,-132.5 503,-132.5 503,-102.5 220,-102.5"/>
<text text-anchor="start" x="227" y="-113.9" font-family="Arial" font-size="14.00" fill="#000000">thumbnail    </text>
<text text-anchor="start" x="321.8822" y="-113.9" font-family="Arial" font-size="14.00" fill="#666666">[varchar]</text>
<polygon fill="none" stroke="#000000" points="220,-72.5 220,-102.5 503,-102.5 503,-72.5 220,-72.5"/>
<text text-anchor="start" x="227" y="-83.9" font-family="Arial" font-size="14.00" fill="#000000">created_at    </text>
<text text-anchor="start" x="327.3422" y="-83.9" font-family="Arial" font-size="14.00" fill="#666666">[timestamp with time zone]</text>
<polygon fill="none" stroke="#000000" points="220,-42.5 220,-72.5 503,-72.5 503,-42.5 220,-42.5"/>
<text text-anchor="start" x="226.5344" y="-53.9" font-family="Arial" font-size="14.00" fill="#000000">updated_at    </text>
<text text-anchor="start" x="330.7812" y="-53.9" font-family="Arial" font-size="14.00" fill="#666666">[timestamp with time zone]</text>
</g>
<!-- public.users -->
<g id="node2" class="node">
<title>public.users</title>
<polygon fill="#efefef" stroke="transparent" points="608,-499.5 608,-534.5 891,-534.5 891,-499.5 608,-499.5"/>
<polygon fill="none" stroke="#000000" points="608,-499.5 608,-534.5 891,-534.5 891,-499.5 608,-499.5"/>
<text text-anchor="start" x="637.7091" y="-512.3" font-family="Arial Bold" font-size="18.00" fill="#000000">public.users</text>
<text text-anchor="start" x="733.7229" y="-512.3" font-family="Arial" font-size="14.00" fill="#000000">    </text>
<text text-anchor="start" x="767.9277" y="-512.3" font-family="Arial" font-size="14.00" fill="#666666">[BASE TABLE]</text>
<polygon fill="none" stroke="#000000" points="608,-469.5 608,-499.5 891,-499.5 891,-469.5 608,-469.5"/>
<text text-anchor="start" x="615" y="-480.9" font-family="Arial" font-size="14.00" fill="#000000">id    </text>
<text text-anchor="start" x="660.094" y="-480.9" font-family="Arial" font-size="14.00" fill="#666666">[uuid]</text>
<polygon fill="none" stroke="#000000" points="608,-439.5 608,-469.5 891,-469.5 891,-439.5 608,-439.5"/>
<text text-anchor="start" x="615" y="-450.9" font-family="Arial" font-size="14.00" fill="#000000">created_at    </text>
<text text-anchor="start" x="715.3422" y="-450.9" font-family="Arial" font-size="14.00" fill="#666666">[timestamp with time zone]</text>
<polygon fill="none" stroke="#000000" points="608,-409.5 608,-439.5 891,-439.5 891,-409.5 608,-409.5"/>
<text text-anchor="start" x="614.5344" y="-420.9" font-family="Arial" font-size="14.00" fill="#000000">updated_at    </text>
<text text-anchor="start" x="718.7812" y="-420.9" font-family="Arial" font-size="14.00" fill="#666666">[timestamp with time zone]</text>
</g>
<!-- public.article_tags -->
<g id="node3" class="node">
<title>public.article_tags</title>
<polygon fill="#efefef" stroke="transparent" points="219,-499.5 219,-534.5 504,-534.5 504,-499.5 219,-499.5"/>
<polygon fill="none" stroke="#000000" points="219,-499.5 219,-534.5 504,-534.5 504,-499.5 219,-499.5"/>
<text text-anchor="start" x="225.7034" y="-512.3" font-family="Arial Bold" font-size="18.00" fill="#000000">public.article_tags</text>
<text text-anchor="start" x="369.7286" y="-512.3" font-family="Arial" font-size="14.00" fill="#000000">    </text>
<text text-anchor="start" x="403.9334" y="-512.3" font-family="Arial" font-size="14.00" fill="#666666">[BASE TABLE]</text>
<polygon fill="none" stroke="#000000" points="219,-469.5 219,-499.5 504,-499.5 504,-469.5 219,-469.5"/>
<text text-anchor="start" x="226" y="-480.9" font-family="Arial" font-size="14.00" fill="#000000">id    </text>
<text text-anchor="start" x="271.094" y="-480.9" font-family="Arial" font-size="14.00" fill="#666666">[uuid]</text>
<polygon fill="none" stroke="#000000" points="219,-439.5 219,-469.5 504,-469.5 504,-439.5 219,-439.5"/>
<text text-anchor="start" x="226" y="-450.9" font-family="Arial" font-size="14.00" fill="#000000">tag    </text>
<text text-anchor="start" x="279.6606" y="-450.9" font-family="Arial" font-size="14.00" fill="#666666">[varchar]</text>
<polygon fill="none" stroke="#000000" points="219,-409.5 219,-439.5 504,-439.5 504,-409.5 219,-409.5"/>
<text text-anchor="start" x="226" y="-420.9" font-family="Arial" font-size="14.00" fill="#000000">article_id    </text>
<text text-anchor="start" x="316.2062" y="-420.9" font-family="Arial" font-size="14.00" fill="#666666">[uuid]</text>
</g>
<!-- public.article_tags&#45;&gt;public.articles -->
<g id="edge1" class="edge">
<title>public.article_tags:article_id&#45;&gt;public.articles:id</title>
<path fill="none" stroke="#000000" d="M361.2077,-399.4709C351.4761,-342.7431 254.7751,-389.9593 220,-331 198.8885,-295.2066 178.4444,-237.5 220,-237.5"/>
<polygon fill="#000000" stroke="#000000" points="361.2123,-399.5311 357.514,-409.8544 361.6062,-404.5155 362,-409.5 362,-409.5 362,-409.5 361.6062,-404.5155 366.486,-409.1456 361.2123,-399.5311 361.2123,-399.5311"/>
<text text-anchor="start" x="6.8365" y="-419.5" font-family="Arial" font-size="10.00" fill="#000000">FOREIGN KEY (article_id) REFERENCES articles(id) ON DELETE CASCADE</text>
</g>
</g>
</svg>
