<?xml version="1.0" encoding="UTF-8" standalone="no"?>
<!DOCTYPE svg PUBLIC "-//W3C//DTD SVG 1.1//EN"
 "http://www.w3.org/Graphics/SVG/1.1/DTD/svg11.dtd">
<!-- Generated by graphviz version 2.40.1 (20161225.0304)
 -->
<!-- Title: postgres Pages: 1 -->
<svg width="1111pt" height="646pt"
 viewBox="0.00 0.00 1111.00 646.00" xmlns="http://www.w3.org/2000/svg" xmlns:xlink="http://www.w3.org/1999/xlink">
<g id="graph0" class="graph" transform="scale(1 1) rotate(0) translate(4 642)">
<title>postgres</title>
<polygon fill="#ffffff" stroke="transparent" points="-4,4 -4,-642 1107,-642 1107,4 -4,4"/>
<!-- public.articles -->
<g id="node1" class="node">
<title>public.articles</title>
<polygon fill="#efefef" stroke="transparent" points="223,-252.5 223,-287.5 506,-287.5 506,-252.5 223,-252.5"/>
<polygon fill="none" stroke="#000000" points="223,-252.5 223,-287.5 506,-287.5 506,-252.5 223,-252.5"/>
<text text-anchor="start" x="246.2138" y="-265.3" font-family="Arial Bold" font-size="18.00" fill="#000000">public.articles</text>
<text text-anchor="start" x="355.2182" y="-265.3" font-family="Arial" font-size="14.00" fill="#000000">    </text>
<text text-anchor="start" x="389.423" y="-265.3" font-family="Arial" font-size="14.00" fill="#666666">[BASE TABLE]</text>
<polygon fill="none" stroke="#000000" points="223,-222.5 223,-252.5 506,-252.5 506,-222.5 223,-222.5"/>
<text text-anchor="start" x="230" y="-233.9" font-family="Arial" font-size="14.00" fill="#000000">id    </text>
<text text-anchor="start" x="275.094" y="-233.9" font-family="Arial" font-size="14.00" fill="#666666">[uuid]</text>
<polygon fill="none" stroke="#000000" points="223,-192.5 223,-222.5 506,-222.5 506,-192.5 223,-192.5"/>
<text text-anchor="start" x="230" y="-203.9" font-family="Arial" font-size="14.00" fill="#000000">title    </text>
<text text-anchor="start" x="285.9818" y="-203.9" font-family="Arial" font-size="14.00" fill="#666666">[varchar]</text>
<polygon fill="none" stroke="#000000" points="223,-162.5 223,-192.5 506,-192.5 506,-162.5 223,-162.5"/>
<text text-anchor="start" x="230" y="-173.9" font-family="Arial" font-size="14.00" fill="#000000">url    </text>
<text text-anchor="start" x="279.7546" y="-173.9" font-family="Arial" font-size="14.00" fill="#666666">[varchar]</text>
<polygon fill="none" stroke="#000000" points="223,-132.5 223,-162.5 506,-162.5 506,-132.5 223,-132.5"/>
<text text-anchor="start" x="230" y="-143.9" font-family="Arial" font-size="14.00" fill="#000000">description    </text>
<text text-anchor="start" x="331.8822" y="-143.9" font-family="Arial" font-size="14.00" fill="#666666">[varchar]</text>
<polygon fill="none" stroke="#000000" points="223,-102.5 223,-132.5 506,-132.5 506,-102.5 223,-102.5"/>
<text text-anchor="start" x="230" y="-113.9" font-family="Arial" font-size="14.00" fill="#000000">thumbnail    </text>
<text text-anchor="start" x="324.8822" y="-113.9" font-family="Arial" font-size="14.00" fill="#666666">[varchar]</text>
<polygon fill="none" stroke="#000000" points="223,-72.5 223,-102.5 506,-102.5 506,-72.5 223,-72.5"/>
<text text-anchor="start" x="230" y="-83.9" font-family="Arial" font-size="14.00" fill="#000000">created_at    </text>
<text text-anchor="start" x="330.3422" y="-83.9" font-family="Arial" font-size="14.00" fill="#666666">[timestamp with time zone]</text>
<polygon fill="none" stroke="#000000" points="223,-42.5 223,-72.5 506,-72.5 506,-42.5 223,-42.5"/>
<text text-anchor="start" x="229.5344" y="-53.9" font-family="Arial" font-size="14.00" fill="#000000">updated_at    </text>
<text text-anchor="start" x="333.7812" y="-53.9" font-family="Arial" font-size="14.00" fill="#666666">[timestamp with time zone]</text>
</g>
<!-- public.article_tags -->
<g id="node2" class="node">
<title>public.article_tags</title>
<polygon fill="#efefef" stroke="transparent" points="219,-529.5 219,-564.5 504,-564.5 504,-529.5 219,-529.5"/>
<polygon fill="none" stroke="#000000" points="219,-529.5 219,-564.5 504,-564.5 504,-529.5 219,-529.5"/>
<text text-anchor="start" x="225.7034" y="-542.3" font-family="Arial Bold" font-size="18.00" fill="#000000">public.article_tags</text>
<text text-anchor="start" x="369.7286" y="-542.3" font-family="Arial" font-size="14.00" fill="#000000">    </text>
<text text-anchor="start" x="403.9334" y="-542.3" font-family="Arial" font-size="14.00" fill="#666666">[BASE TABLE]</text>
<polygon fill="none" stroke="#000000" points="219,-499.5 219,-529.5 504,-529.5 504,-499.5 219,-499.5"/>
<text text-anchor="start" x="226" y="-510.9" font-family="Arial" font-size="14.00" fill="#000000">id    </text>
<text text-anchor="start" x="271.094" y="-510.9" font-family="Arial" font-size="14.00" fill="#666666">[uuid]</text>
<polygon fill="none" stroke="#000000" points="219,-469.5 219,-499.5 504,-499.5 504,-469.5 219,-469.5"/>
<text text-anchor="start" x="226" y="-480.9" font-family="Arial" font-size="14.00" fill="#000000">tag    </text>
<text text-anchor="start" x="279.6606" y="-480.9" font-family="Arial" font-size="14.00" fill="#666666">[varchar]</text>
<polygon fill="none" stroke="#000000" points="219,-439.5 219,-469.5 504,-469.5 504,-439.5 219,-439.5"/>
<text text-anchor="start" x="226" y="-450.9" font-family="Arial" font-size="14.00" fill="#000000">article_id    </text>
<text text-anchor="start" x="316.2062" y="-450.9" font-family="Arial" font-size="14.00" fill="#666666">[uuid]</text>
</g>
<!-- public.article_tags&#45;&gt;public.articles -->
<g id="edge1" class="edge">
<title>public.article_tags:article_id&#45;&gt;public.articles:id</title>
<path fill="none" stroke="#000000" d="M361.3283,-429.2378C352.3454,-364.6648 255.7596,-398.1296 223,-331 204.775,-293.6541 181.4444,-237.5 223,-237.5"/>
<polygon fill="#000000" stroke="#000000" points="361.3468,-429.5214 357.5096,-439.7939 361.6734,-434.5107 362,-439.5 362,-439.5 362,-439.5 361.6734,-434.5107 366.4904,-439.2061 361.3468,-429.5214 361.3468,-429.5214"/>
<text text-anchor="start" x="6.8365" y="-449.5" font-family="Arial" font-size="10.00" fill="#000000">FOREIGN KEY (article_id) REFERENCES articles(id) ON DELETE CASCADE</text>
</g>
<!-- public.users -->
<g id="node3" class="node">
<title>public.users</title>
<polygon fill="#efefef" stroke="transparent" points="614,-192.5 614,-227.5 897,-227.5 897,-192.5 614,-192.5"/>
<polygon fill="none" stroke="#000000" points="614,-192.5 614,-227.5 897,-227.5 897,-192.5 614,-192.5"/>
<text text-anchor="start" x="643.7091" y="-205.3" font-family="Arial Bold" font-size="18.00" fill="#000000">public.users</text>
<text text-anchor="start" x="739.7229" y="-205.3" font-family="Arial" font-size="14.00" fill="#000000">    </text>
<text text-anchor="start" x="773.9277" y="-205.3" font-family="Arial" font-size="14.00" fill="#666666">[BASE TABLE]</text>
<polygon fill="none" stroke="#000000" points="614,-162.5 614,-192.5 897,-192.5 897,-162.5 614,-162.5"/>
<text text-anchor="start" x="621" y="-173.9" font-family="Arial" font-size="14.00" fill="#000000">id    </text>
<text text-anchor="start" x="666.094" y="-173.9" font-family="Arial" font-size="14.00" fill="#666666">[uuid]</text>
<polygon fill="none" stroke="#000000" points="614,-132.5 614,-162.5 897,-162.5 897,-132.5 614,-132.5"/>
<text text-anchor="start" x="621" y="-143.9" font-family="Arial" font-size="14.00" fill="#000000">created_at    </text>
<text text-anchor="start" x="721.3422" y="-143.9" font-family="Arial" font-size="14.00" fill="#666666">[timestamp with time zone]</text>
<polygon fill="none" stroke="#000000" points="614,-102.5 614,-132.5 897,-132.5 897,-102.5 614,-102.5"/>
<text text-anchor="start" x="620.5344" y="-113.9" font-family="Arial" font-size="14.00" fill="#000000">updated_at    </text>
<text text-anchor="start" x="724.7812" y="-113.9" font-family="Arial" font-size="14.00" fill="#666666">[timestamp with time zone]</text>
</g>
<!-- public.user_articles -->
<g id="node4" class="node">
<title>public.user_articles</title>
<polygon fill="#efefef" stroke="transparent" points="608,-559.5 608,-594.5 903,-594.5 903,-559.5 608,-559.5"/>
<polygon fill="none" stroke="#000000" points="608,-559.5 608,-594.5 903,-594.5 903,-559.5 608,-559.5"/>
<text text-anchor="start" x="614.7084" y="-572.3" font-family="Arial Bold" font-size="18.00" fill="#000000">public.user_articles</text>
<text text-anchor="start" x="768.7236" y="-572.3" font-family="Arial" font-size="14.00" fill="#000000">    </text>
<text text-anchor="start" x="802.9284" y="-572.3" font-family="Arial" font-size="14.00" fill="#666666">[BASE TABLE]</text>
<polygon fill="none" stroke="#000000" points="608,-529.5 608,-559.5 903,-559.5 903,-529.5 608,-529.5"/>
<text text-anchor="start" x="615" y="-540.9" font-family="Arial" font-size="14.00" fill="#000000">id    </text>
<text text-anchor="start" x="660.094" y="-540.9" font-family="Arial" font-size="14.00" fill="#666666">[uuid]</text>
<polygon fill="none" stroke="#000000" points="608,-499.5 608,-529.5 903,-529.5 903,-499.5 608,-499.5"/>
<text text-anchor="start" x="615" y="-510.9" font-family="Arial" font-size="14.00" fill="#000000">created_at    </text>
<text text-anchor="start" x="715.3422" y="-510.9" font-family="Arial" font-size="14.00" fill="#666666">[timestamp with time zone]</text>
<polygon fill="none" stroke="#000000" points="608,-469.5 608,-499.5 903,-499.5 903,-469.5 608,-469.5"/>
<text text-anchor="start" x="615" y="-480.9" font-family="Arial" font-size="14.00" fill="#000000">updated_at    </text>
<text text-anchor="start" x="719.2468" y="-480.9" font-family="Arial" font-size="14.00" fill="#666666">[timestamp with time zone]</text>
<polygon fill="none" stroke="#000000" points="608,-439.5 608,-469.5 903,-469.5 903,-439.5 608,-439.5"/>
<text text-anchor="start" x="615" y="-450.9" font-family="Arial" font-size="14.00" fill="#000000">article_id    </text>
<text text-anchor="start" x="705.2062" y="-450.9" font-family="Arial" font-size="14.00" fill="#666666">[uuid]</text>
<polygon fill="none" stroke="#000000" points="608,-409.5 608,-439.5 903,-439.5 903,-409.5 608,-409.5"/>
<text text-anchor="start" x="615" y="-420.9" font-family="Arial" font-size="14.00" fill="#000000">user_id    </text>
<text text-anchor="start" x="695.1024" y="-420.9" font-family="Arial" font-size="14.00" fill="#666666">[uuid]</text>
</g>
<!-- public.user_articles&#45;&gt;public.articles -->
<g id="edge2" class="edge">
<title>public.user_articles:article_id&#45;&gt;public.articles:id</title>
<path fill="none" stroke="#000000" d="M597.8183,-453.7568C508.7752,-439.9195 608.9251,-237.5 506,-237.5"/>
<polygon fill="#000000" stroke="#000000" points="598.0265,-453.7719 607.6724,-458.9881 603.0133,-454.136 608,-454.5 608,-454.5 608,-454.5 603.0133,-454.136 608.3276,-450.0119 598.0265,-453.7719 598.0265,-453.7719"/>
<text text-anchor="start" x="614.8365" y="-464.5" font-family="Arial" font-size="10.00" fill="#000000">FOREIGN KEY (article_id) REFERENCES articles(id) ON DELETE CASCADE</text>
</g>
<!-- public.user_articles&#45;&gt;public.users -->
<g id="edge3" class="edge">
<title>public.user_articles:user_id&#45;&gt;public.users:id</title>
<path fill="none" stroke="#000000" d="M755.4687,-399.2372C747.2844,-323.6863 646.8401,-348.9047 614,-271 597.8582,-232.7076 572.4444,-177.5 614,-177.5"/>
<polygon fill="#000000" stroke="#000000" points="755.4829,-399.5134 751.506,-409.7327 755.7414,-404.5067 756,-409.5 756,-409.5 756,-409.5 755.7414,-404.5067 760.494,-409.2673 755.4829,-399.5134 755.4829,-399.5134"/>
<text text-anchor="start" x="763.0535" y="-419.5" font-family="Arial" font-size="10.00" fill="#000000">FOREIGN KEY (user_id) REFERENCES users(id) ON DELETE CASCADE</text>
</g>
</g>
</svg>
