<?xml version="1.0" encoding="UTF-8" standalone="no"?>
<!DOCTYPE svg PUBLIC "-//W3C//DTD SVG 1.1//EN"
 "http://www.w3.org/Graphics/SVG/1.1/DTD/svg11.dtd">
<!-- Generated by graphviz version 2.40.1 (20161225.0304)
 -->
<!-- Title: postgres Pages: 1 -->
<svg width="831pt" height="586pt"
 viewBox="0.00 0.00 830.50 586.00" xmlns="http://www.w3.org/2000/svg" xmlns:xlink="http://www.w3.org/1999/xlink">
<g id="graph0" class="graph" transform="scale(1 1) rotate(0) translate(4 582)">
<title>postgres</title>
<polygon fill="#ffffff" stroke="transparent" points="-4,4 -4,-582 826.5,-582 826.5,4 -4,4"/>
<!-- public.articles -->
<g id="node1" class="node">
<title>public.articles</title>
<polygon fill="#efefef" stroke="transparent" points="109,-252.5 109,-287.5 392,-287.5 392,-252.5 109,-252.5"/>
<polygon fill="none" stroke="#000000" points="109,-252.5 109,-287.5 392,-287.5 392,-252.5 109,-252.5"/>
<text text-anchor="start" x="132.2138" y="-265.3" font-family="Arial Bold" font-size="18.00" fill="#000000">public.articles</text>
<text text-anchor="start" x="241.2182" y="-265.3" font-family="Arial" font-size="14.00" fill="#000000">    </text>
<text text-anchor="start" x="275.423" y="-265.3" font-family="Arial" font-size="14.00" fill="#666666">[BASE TABLE]</text>
<polygon fill="none" stroke="#000000" points="109,-222.5 109,-252.5 392,-252.5 392,-222.5 109,-222.5"/>
<text text-anchor="start" x="116" y="-233.9" font-family="Arial" font-size="14.00" fill="#000000">id    </text>
<text text-anchor="start" x="161.094" y="-233.9" font-family="Arial" font-size="14.00" fill="#666666">[uuid]</text>
<polygon fill="none" stroke="#000000" points="109,-192.5 109,-222.5 392,-222.5 392,-192.5 109,-192.5"/>
<text text-anchor="start" x="116" y="-203.9" font-family="Arial" font-size="14.00" fill="#000000">title    </text>
<text text-anchor="start" x="171.9818" y="-203.9" font-family="Arial" font-size="14.00" fill="#666666">[varchar]</text>
<polygon fill="none" stroke="#000000" points="109,-162.5 109,-192.5 392,-192.5 392,-162.5 109,-162.5"/>
<text text-anchor="start" x="116" y="-173.9" font-family="Arial" font-size="14.00" fill="#000000">url    </text>
<text text-anchor="start" x="165.7546" y="-173.9" font-family="Arial" font-size="14.00" fill="#666666">[varchar]</text>
<polygon fill="none" stroke="#000000" points="109,-132.5 109,-162.5 392,-162.5 392,-132.5 109,-132.5"/>
<text text-anchor="start" x="116" y="-143.9" font-family="Arial" font-size="14.00" fill="#000000">description    </text>
<text text-anchor="start" x="217.8822" y="-143.9" font-family="Arial" font-size="14.00" fill="#666666">[varchar]</text>
<polygon fill="none" stroke="#000000" points="109,-102.5 109,-132.5 392,-132.5 392,-102.5 109,-102.5"/>
<text text-anchor="start" x="116" y="-113.9" font-family="Arial" font-size="14.00" fill="#000000">thumbnail    </text>
<text text-anchor="start" x="210.8822" y="-113.9" font-family="Arial" font-size="14.00" fill="#666666">[varchar]</text>
<polygon fill="none" stroke="#000000" points="109,-72.5 109,-102.5 392,-102.5 392,-72.5 109,-72.5"/>
<text text-anchor="start" x="116" y="-83.9" font-family="Arial" font-size="14.00" fill="#000000">created_at    </text>
<text text-anchor="start" x="216.3422" y="-83.9" font-family="Arial" font-size="14.00" fill="#666666">[timestamp with time zone]</text>
<polygon fill="none" stroke="#000000" points="109,-42.5 109,-72.5 392,-72.5 392,-42.5 109,-42.5"/>
<text text-anchor="start" x="115.5344" y="-53.9" font-family="Arial" font-size="14.00" fill="#000000">updated_at    </text>
<text text-anchor="start" x="219.7812" y="-53.9" font-family="Arial" font-size="14.00" fill="#666666">[timestamp with time zone]</text>
</g>
<!-- public.users -->
<g id="node2" class="node">
<title>public.users</title>
<polygon fill="#efefef" stroke="transparent" points="497,-499.5 497,-534.5 780,-534.5 780,-499.5 497,-499.5"/>
<polygon fill="none" stroke="#000000" points="497,-499.5 497,-534.5 780,-534.5 780,-499.5 497,-499.5"/>
<text text-anchor="start" x="526.7091" y="-512.3" font-family="Arial Bold" font-size="18.00" fill="#000000">public.users</text>
<text text-anchor="start" x="622.7229" y="-512.3" font-family="Arial" font-size="14.00" fill="#000000">    </text>
<text text-anchor="start" x="656.9277" y="-512.3" font-family="Arial" font-size="14.00" fill="#666666">[BASE TABLE]</text>
<polygon fill="none" stroke="#000000" points="497,-469.5 497,-499.5 780,-499.5 780,-469.5 497,-469.5"/>
<text text-anchor="start" x="504" y="-480.9" font-family="Arial" font-size="14.00" fill="#000000">id    </text>
<text text-anchor="start" x="549.094" y="-480.9" font-family="Arial" font-size="14.00" fill="#666666">[uuid]</text>
<polygon fill="none" stroke="#000000" points="497,-439.5 497,-469.5 780,-469.5 780,-439.5 497,-439.5"/>
<text text-anchor="start" x="504" y="-450.9" font-family="Arial" font-size="14.00" fill="#000000">created_at    </text>
<text text-anchor="start" x="604.3422" y="-450.9" font-family="Arial" font-size="14.00" fill="#666666">[timestamp with time zone]</text>
<polygon fill="none" stroke="#000000" points="497,-409.5 497,-439.5 780,-439.5 780,-409.5 497,-409.5"/>
<text text-anchor="start" x="503.5344" y="-420.9" font-family="Arial" font-size="14.00" fill="#000000">updated_at    </text>
<text text-anchor="start" x="607.7812" y="-420.9" font-family="Arial" font-size="14.00" fill="#666666">[timestamp with time zone]</text>
</g>
<!-- public.article_tags -->
<g id="node3" class="node">
<title>public.article_tags</title>
<polygon fill="#efefef" stroke="transparent" points="108,-499.5 108,-534.5 393,-534.5 393,-499.5 108,-499.5"/>
<polygon fill="none" stroke="#000000" points="108,-499.5 108,-534.5 393,-534.5 393,-499.5 108,-499.5"/>
<text text-anchor="start" x="114.7034" y="-512.3" font-family="Arial Bold" font-size="18.00" fill="#000000">public.article_tags</text>
<text text-anchor="start" x="258.7286" y="-512.3" font-family="Arial" font-size="14.00" fill="#000000">    </text>
<text text-anchor="start" x="292.9334" y="-512.3" font-family="Arial" font-size="14.00" fill="#666666">[BASE TABLE]</text>
<polygon fill="none" stroke="#000000" points="108,-469.5 108,-499.5 393,-499.5 393,-469.5 108,-469.5"/>
<text text-anchor="start" x="115" y="-480.9" font-family="Arial" font-size="14.00" fill="#000000">id    </text>
<text text-anchor="start" x="160.094" y="-480.9" font-family="Arial" font-size="14.00" fill="#666666">[uuid]</text>
<polygon fill="none" stroke="#000000" points="108,-439.5 108,-469.5 393,-469.5 393,-439.5 108,-439.5"/>
<text text-anchor="start" x="115" y="-450.9" font-family="Arial" font-size="14.00" fill="#000000">tag    </text>
<text text-anchor="start" x="168.6606" y="-450.9" font-family="Arial" font-size="14.00" fill="#666666">[varchar]</text>
<polygon fill="none" stroke="#000000" points="108,-409.5 108,-439.5 393,-439.5 393,-409.5 108,-409.5"/>
<text text-anchor="start" x="115" y="-420.9" font-family="Arial" font-size="14.00" fill="#000000">article_id    </text>
<text text-anchor="start" x="205.2062" y="-420.9" font-family="Arial" font-size="14.00" fill="#666666">[uuid]</text>
</g>
<!-- public.article_tags&#45;&gt;public.articles -->
<g id="edge1" class="edge">
<title>public.article_tags:article_id&#45;&gt;public.articles:id</title>
<path fill="none" stroke="#000000" d="M250.2077,-399.4709C240.4761,-342.7431 143.7751,-389.9593 109,-331 87.8885,-295.2066 67.4444,-237.5 109,-237.5"/>
<polygon fill="#000000" stroke="#000000" points="250.2123,-399.5311 246.514,-409.8544 250.6062,-404.5155 251,-409.5 251,-409.5 251,-409.5 250.6062,-404.5155 255.486,-409.1456 250.2123,-399.5311 250.2123,-399.5311"/>
<text text-anchor="start" x="7.1175" y="-419.5" font-family="Arial" font-size="10.00" fill="#000000">FOREIGN KEY (article_id) REFERENCES articles(id)</text>
</g>
</g>
</svg>
