<?xml version="1.0" encoding="UTF-8" standalone="no"?>
<!DOCTYPE svg PUBLIC "-//W3C//DTD SVG 1.1//EN"
 "http://www.w3.org/Graphics/SVG/1.1/DTD/svg11.dtd">
<!-- Generated by graphviz version 2.40.1 (20161225.0304)
 -->
<!-- Title: postgres Pages: 1 -->
<svg width="446pt" height="586pt"
 viewBox="0.00 0.00 445.50 586.00" xmlns="http://www.w3.org/2000/svg" xmlns:xlink="http://www.w3.org/1999/xlink">
<g id="graph0" class="graph" transform="scale(1 1) rotate(0) translate(4 582)">
<title>postgres</title>
<polygon fill="#ffffff" stroke="transparent" points="-4,4 -4,-582 441.5,-582 441.5,4 -4,4"/>
<!-- public.articles -->
<g id="node1" class="node">
<title>public.articles</title>
<polygon fill="#efefef" stroke="transparent" points="59.5,-252.5 59.5,-287.5 312.5,-287.5 312.5,-252.5 59.5,-252.5"/>
<polygon fill="none" stroke="#000000" points="59.5,-252.5 59.5,-287.5 312.5,-287.5 312.5,-252.5 59.5,-252.5"/>
<text text-anchor="start" x="67.7138" y="-265.3" font-family="Arial Bold" font-size="18.00" fill="#000000">public.articles</text>
<text text-anchor="start" x="176.7182" y="-265.3" font-family="Arial" font-size="14.00" fill="#000000">    </text>
<text text-anchor="start" x="210.923" y="-265.3" font-family="Arial" font-size="14.00" fill="#666666">[BASE TABLE]</text>
<polygon fill="none" stroke="#000000" points="59.5,-222.5 59.5,-252.5 312.5,-252.5 312.5,-222.5 59.5,-222.5"/>
<text text-anchor="start" x="66.5" y="-233.9" font-family="Arial" font-size="14.00" fill="#000000">id </text>
<text text-anchor="start" x="81.2798" y="-233.9" font-family="Arial" font-size="14.00" fill="#666666">[uuid]</text>
<polygon fill="none" stroke="#000000" points="59.5,-192.5 59.5,-222.5 312.5,-222.5 312.5,-192.5 59.5,-192.5"/>
<text text-anchor="start" x="66.5" y="-203.9" font-family="Arial" font-size="14.00" fill="#000000">title </text>
<text text-anchor="start" x="92.1676" y="-203.9" font-family="Arial" font-size="14.00" fill="#666666">[varchar]</text>
<polygon fill="none" stroke="#000000" points="59.5,-162.5 59.5,-192.5 312.5,-192.5 312.5,-162.5 59.5,-162.5"/>
<text text-anchor="start" x="66.5" y="-173.9" font-family="Arial" font-size="14.00" fill="#000000">url </text>
<text text-anchor="start" x="85.9404" y="-173.9" font-family="Arial" font-size="14.00" fill="#666666">[varchar]</text>
<polygon fill="none" stroke="#000000" points="59.5,-132.5 59.5,-162.5 312.5,-162.5 312.5,-132.5 59.5,-132.5"/>
<text text-anchor="start" x="66.5" y="-143.9" font-family="Arial" font-size="14.00" fill="#000000">description </text>
<text text-anchor="start" x="138.068" y="-143.9" font-family="Arial" font-size="14.00" fill="#666666">[varchar]</text>
<polygon fill="none" stroke="#000000" points="59.5,-102.5 59.5,-132.5 312.5,-132.5 312.5,-102.5 59.5,-102.5"/>
<text text-anchor="start" x="66.5" y="-113.9" font-family="Arial" font-size="14.00" fill="#000000">thumbnail </text>
<text text-anchor="start" x="131.068" y="-113.9" font-family="Arial" font-size="14.00" fill="#666666">[varchar]</text>
<polygon fill="none" stroke="#000000" points="59.5,-72.5 59.5,-102.5 312.5,-102.5 312.5,-72.5 59.5,-72.5"/>
<text text-anchor="start" x="66.5" y="-83.9" font-family="Arial" font-size="14.00" fill="#000000">created_at </text>
<text text-anchor="start" x="136.528" y="-83.9" font-family="Arial" font-size="14.00" fill="#666666">[timestamp with time zone]</text>
<polygon fill="none" stroke="#000000" points="59.5,-42.5 59.5,-72.5 312.5,-72.5 312.5,-42.5 59.5,-42.5"/>
<text text-anchor="start" x="66.1915" y="-53.9" font-family="Arial" font-size="14.00" fill="#000000">updated_at </text>
<text text-anchor="start" x="140.1241" y="-53.9" font-family="Arial" font-size="14.00" fill="#666666">[timestamp with time zone]</text>
</g>
<!-- public.article_tags -->
<g id="node2" class="node">
<title>public.article_tags</title>
<polygon fill="#efefef" stroke="transparent" points="43.5,-499.5 43.5,-534.5 328.5,-534.5 328.5,-499.5 43.5,-499.5"/>
<polygon fill="none" stroke="#000000" points="43.5,-499.5 43.5,-534.5 328.5,-534.5 328.5,-499.5 43.5,-499.5"/>
<text text-anchor="start" x="50.2034" y="-512.3" font-family="Arial Bold" font-size="18.00" fill="#000000">public.article_tags</text>
<text text-anchor="start" x="194.2286" y="-512.3" font-family="Arial" font-size="14.00" fill="#000000">    </text>
<text text-anchor="start" x="228.4334" y="-512.3" font-family="Arial" font-size="14.00" fill="#666666">[BASE TABLE]</text>
<polygon fill="none" stroke="#000000" points="43.5,-469.5 43.5,-499.5 328.5,-499.5 328.5,-469.5 43.5,-469.5"/>
<text text-anchor="start" x="50.5" y="-480.9" font-family="Arial" font-size="14.00" fill="#000000">id </text>
<text text-anchor="start" x="65.2798" y="-480.9" font-family="Arial" font-size="14.00" fill="#666666">[uuid]</text>
<polygon fill="none" stroke="#000000" points="43.5,-439.5 43.5,-469.5 328.5,-469.5 328.5,-439.5 43.5,-439.5"/>
<text text-anchor="start" x="50.5" y="-450.9" font-family="Arial" font-size="14.00" fill="#000000">tag </text>
<text text-anchor="start" x="73.8464" y="-450.9" font-family="Arial" font-size="14.00" fill="#666666">[varchar]</text>
<polygon fill="none" stroke="#000000" points="43.5,-409.5 43.5,-439.5 328.5,-439.5 328.5,-409.5 43.5,-409.5"/>
<text text-anchor="start" x="50.5" y="-420.9" font-family="Arial" font-size="14.00" fill="#000000">article_id </text>
<text text-anchor="start" x="110.392" y="-420.9" font-family="Arial" font-size="14.00" fill="#666666">[uuid]</text>
</g>
<!-- public.article_tags&#45;&gt;public.articles -->
<g id="edge1" class="edge">
<title>public.article_tags:article_id&#45;&gt;public.articles:id</title>
<path fill="none" stroke="#000000" d="M185.6172,-399.2649C175.9737,-348.0004 89.9816,-385.6755 59.5,-331 39.2649,-294.7039 17.9444,-237.5 59.5,-237.5"/>
<polygon fill="#000000" stroke="#000000" points="185.6406,-399.537 182.0166,-409.8867 186.0703,-404.5185 186.5,-409.5 186.5,-409.5 186.5,-409.5 186.0703,-404.5185 190.9834,-409.1133 185.6406,-399.537 185.6406,-399.537"/>
<text text-anchor="start" x="193.6175" y="-419.5" font-family="Arial" font-size="10.00" fill="#000000">FOREIGN KEY (article_id) REFERENCES articles(id)</text>
</g>
</g>
</svg>
